<?xml version="1.0" encoding="utf-8"?><!--Generator: Adobe Illustrator 27.1.1, SVG Export Plug-In . SVG Version: 6.00 Build 0)--><svg version="1.1" id="stars-seal" xmlns="http://www.w3.org/2000/svg" xmlns:xlink="http://www.w3.org/1999/xlink" x="0px" y="0px" viewBox="0 0 297 298" enable-background="new 0 0 297 298" xml:space="preserve"><path fill="#FFFFFF" d="M118.7,84.1l-2.4,1.2l-1.8-1.9l0.4,2.6l-2.4,1.2l2.6,0.5l0.4,2.6l1.2-2.3l2.6,0.5l-1.8-1.9L118.7,84.1z"/><path fill="#FFFFFF" d="M118.8,83.5l-0.6-2l-0.5,0.1l0.6,2.1L118.8,83.5z"/><path fill="#FFFFFF" d="M176.5,86.9l0.5,0.1l0.5-1.7l-0.3-0.6L176.5,86.9z"/><path fill="#FFFFFF" d="M177.5,83.6l0.4,0.2l0.8-2.7l-0.5-0.1L177.5,83.6z"/><path fill="#FFFFFF" d="M187.9,91.3l-0.2-0.4l-0.4,0.9L187.9,91.3z"/><path fill="#FFFFFF" d="M204.2,84.4l-3.2,5.7l0.4,0.2l3.2-5.7L204.2,84.4z"/><path fill="#FFFFFF" d="M195.4,89.1l-0.4-0.2l-1.5,3.2l0.4,0.3L195.4,89.1z"/><path fill="#FFFFFF" d="M193.3,93.5l-0.5,0.1l-0.4,0.7l0.4,0.2L193.3,93.5z"/><path fill="#FFFFFF" d="M188.6,88.9l0.4,0.3l1.1-2.5l-0.4-0.2L188.6,88.9z"/><path fill="#FFFFFF" d="M118.8,85.2l0.7,2.4l0.5-0.1l-0.8-2.9L118.8,85.2z"/><path fill="#FFFFFF" d="M142.1,75.4l-0.5,0l0.4,6.5l0.5,0L142.1,75.4z"/><path fill="#FFFFFF" d="M145,78.3l0.1,4.3c0.5-0.8,0.4-3,0.4-4L145,78.3z"/><path fill="#FFFFFF" d="M139.1,79.7l1.2,2.4l-0.3-3.3L139.1,79.7z"/><path fill="#FFFFFF" d="M124.6,81l-0.4-1.6l-0.5,0.1l0.4,1.6L124.6,81z"/><path fill="#FFFFFF" d="M197.9,95.9l-3.2,5.7l0.4,0.2l3.2-5.7L197.9,95.9z"/><path fill="#FFFFFF" d="M147.9,80.6v0.9h0.5v-0.8l-0.3-0.2L147.9,80.6z"/><path fill="#FFFFFF" d="M129.3,80.1l-2.4,0.8l-1.5-2v2.5l-2.4,0.8l2.4,0.8v2.5l1.5-2l2.4,0.8l-1.5-2L129.3,80.1z"/><path fill="#FFFFFF" d="M140.1,77.9l-2.4,0.4l-1.1-2.1l-0.4,2.4l-2.4,0.4l2.2,1.1l-0.4,2.4l1.7-1.7l2.2,1.1l-1.1-2.1L140.1,77.9z"/><path fill="#FFFFFF" d="M124.9,84.7v-1.4l-0.4-0.1L124.9,84.7z"/><path fill="#FFFFFF" d="M130.2,77.8l-0.5,0.1l0.2,1.4l0.5-0.2L130.2,77.8z"/><path fill="#FFFFFF" d="M130.1,80l0.7,4.2l0.5-0.1l-0.8-4.6L130.1,80z"/><path fill="#FFFFFF" d="M140.2,118.4c-0.6-0.5-1-1.1-1.4-1.7c0,1.7,1.7,3.2,3.4,2.7C141.4,119.2,140.7,118.9,140.2,118.4z"/><path fill="#FFFFFF" d="M108.3,129c0,0,0,1.1,1.5,2.3C109.8,131.3,109.4,128.9,108.3,129z"/><path fill="#FFFFFF" d="M109.8,126.9c0,0-1.2-3.5-2.3-3.5C107.5,123.4,107.8,125.3,109.8,126.9z"/><path fill="#FFFFFF" d="M106,132.1c0,0,0.3,0.6,2,1.2C108,133.3,107,131.6,106,132.1z"/><path fill="#FFFFFF" d="M105.2,134.9c0,0,0.1,0.5,1.4,1C106.6,135.9,106.2,134.5,105.2,134.9z"/><path fill="#FFFFFF" d="M113.1,144.5l-0.4,0.3l3.8,4.6l0.4-0.3L113.1,144.5z"/><path fill="#FFFFFF" d="M153,120.8c1.7-0.4-4.5-0.2-2.4-1.7c-1.6,0.3-2.9,0.9-4.4,0.8c-0.7,0-1.5-0.5-2.1,0c0,0.2,0.6,0.1,0.8,0.2
	c0.8,0.4,0.8,1.9,1.8,2.3c1.4,1,3.3,0.2,3.4-1.6C151.1,121,152.6,120.9,153,120.8z M148,120.4c0.2-0.4,0.8-0.2,0.8,0.2
	C148.8,121.3,147.6,121,148,120.4z M149.3,121.5c-0.7,1.4-2.9,0.8-2.8-0.7C147.8,123.6,150.2,119.5,149.3,121.5z"/><path fill="#FFFFFF" d="M135.4,148.9c-0.5,0.4-1.3,0.3-1.5-0.4c-0.6,0.8-1.3,1.8-2.4,1.9c-0.4,2.5,1.3,2,2.6,0.7
	c0.4-0.3,0.8-0.6,1.1-0.9c0-0.5,0.2-0.9,0.4-1.3C135.5,148.8,135.4,148.8,135.4,148.9z"/><path fill="#FFFFFF" d="M148.1,75.3l-0.7,2.2H145l1.9,1.4l-0.7,2.2l1.9-1.4l1.9,1.4l-0.8-2.2l1.9-1.4h-2.4L148.1,75.3z"/><path fill="#FFFFFF" d="M145.2,124.4c0.8,5-1.3,2.6-4.3,1.8c0.6,0.3,1.1,0.7,1.6,1.1c0,0,0,0,0,0c0.7,0.4,1.5,0.9,2.4,0.8
	c0.1,2.8-0.6,3.3-2.6,1.2c1.3,3.6,3.8,1.6,2.6-1.2C146.4,127.5,145.6,125.4,145.2,124.4z"/><path fill="#FFFFFF" d="M105.7,151.3c0-0.1-1.2,0.8-1.5,2.2c0,0.2,1-1,1.5-1c0.5,0,2.2-0.1,2.5-0.3
	C108.1,152.3,105.7,152.3,105.7,151.3z"/><path fill="#FFFFFF" d="M186.9,131.3c0.6-0.4,1.6-1.8,1.5-2.3C187.3,128.9,186.9,131.3,186.9,131.3z"/><path fill="#FFFFFF" d="M192.5,153.6c-0.2-1.5-1.5-2.3-1.5-2.2c0,1-2.5,1-2.5,1c0.4,0.3,2,0.3,2.5,0.3
	C191.5,152.6,192.5,153.7,192.5,153.6z"/><path fill="#FFFFFF" d="M190.7,132.1c-0.9-0.6-2,1.1-1.9,1.2C189.4,133.2,190.9,132.1,190.7,132.1z"/><path fill="#FFFFFF" d="M189.3,123.4c-1.1,0-2.4,3.5-2.4,3.5C188.9,125.3,189.3,123.4,189.3,123.4z"/><path fill="#FFFFFF" d="M189.1,155.9c0.5,0,1.5,1.7,1.5,1.5c-0.2-1.5-1.5-2.9-1.5-2.8C189.1,156.2,184.4,155.9,189.1,155.9z"/><path fill="#FFFFFF" d="M190.2,135.9c1.2-0.5,1.3-1,1.3-1C190.8,134.5,190.2,135.7,190.2,135.9C190.2,135.9,190.2,135.9,190.2,135.9
	z"/><path fill="#FFFFFF" d="M132.3,120.6c-0.8,0.8-0.9,2.2-0.2,3.1c0-1.2,0.1-2.4,0.9-3.3c0.1-0.1,0.2-0.2,0.3-0.2
	C132.9,120.2,132.6,120.4,132.3,120.6z"/><path fill="#FFFFFF" d="M109.2,157.9c0-0.1-0.1,1.4,0.5,1.2c0.5-0.1,1.7-0.3,2-0.7C111.6,158.4,109.5,158.8,109.2,157.9z"/><path fill="#FFFFFF" d="M116.8,143.5l-0.4,0.3l3.7,5l0.4-0.3L116.8,143.5z"/><path fill="#FFFFFF" d="M107.6,154.6c0-0.1-1.2,1.3-1.6,2.8c0,0.2,1-1.5,1.6-1.5C112.5,155.9,107.6,156.2,107.6,154.6z"/><path fill="#FFFFFF" d="M187.1,159.1c0.4,0.2,0.3-1.3,0.3-1.2C187,159.1,182.5,157.8,187.1,159.1z"/><path fill="#FFFFFF" d="M286.2,184.3l-5.1,3.7l-5.1-3.7l2,6.1l-5.1,3.7h6.3l2,6.1l2-6.1h6.3l-5.1-3.7L286.2,184.3z M285.9,193h-3.7
	l-1.1,3.5l-1.1-3.5h-3.7l3-2.2l-1.1-3.5l3,2.2l3-2.2l-1.1,3.5L285.9,193z"/><path fill="#FFFFFF" d="M114,112.3l0.2,1.2l3.4-2.8l-1.2-1.6l-0.2,0.1l0.1,1.9l-1,0.8l-1.4-1.7l1.8-1.4l-0.4-0.5l-1.7,1.4l-1.3-1.6
	l0.9-0.8l1.6,0.6l0.2-0.2l-1.2-1.5l-3.3,2.7C111.6,108.8,113.5,111.6,114,112.3z"/><path fill="#FFFFFF" d="M209.9,214.3c0.1,0.1,0.3,0.1,0.4,0.2c0,0,0,0,0.1,0c0.2,0.2,0.4,0.3,0.6,0.5c0.1-0.1,0.6-0.6,0.8-0.8
	c-0.6-0.1-1.4-0.1-2-0.1l-0.1,0.1C209.7,214.2,209.8,214.3,209.9,214.3z"/><path fill="#FFFFFF" d="M118.1,104.9l1.5,3.5l-0.3,1.2l2.7-1.2l-1.2-0.6l-0.5-1.2c1.6-0.4,2.7-3.1,0.5-3.6c-0.8-0.2-2.8,0.9-3.7,1.2
	C117.3,104.4,118,104.8,118.1,104.9z M120.7,104.5c0.3,0.7,0.1,1.3-0.6,1.6l-1-2.3C119.9,103.6,120.4,103.8,120.7,104.5z"/><path fill="#FFFFFF" d="M193.3,246.6c0.6-0.1,1.3-0.2,1.8-0.3c0.3,1.1,2.3,1.6,3.1,1.2c1,1.4,2.6,0.2,4-0.5c0.7,0.7,1.6,0.7,2.4,0.3
	c0.8,0.5,2.7,2.6,3.3,0.7c0,0,3.2-17.1,3.2-17.1c0-1.3-1.8-2.2-2.2-2.6c0-0.2,0-0.4,0.1-0.8c2,1.1,3.1-1.6,4.6-2.3
	c1.6-0.5,3.6-0.5,4.6-2c1-1.5-0.5-3.1,0.1-4.6c1.4-1.6,3.3-3.9,1.2-5.8l23.3-17.9c0.2,1,0.8,3.7,2.2,2.1c0,0,5.9-9.5,5.9-9.5
	c0.5-0.6,0-1.6-0.8-1.5c-0.4-0.1-10.7,3.8-11.2,3.9c-2,1.1,0.8,2.3,1.7,2.7l-6.9,5.3c0.1-0.6,2.8-5.3,2.2-5.8l3.7-3.8
	c0.6,0,1-0.5,1.1-1.1c0,0,7.6-7.7,7.6-7.7c0.4,1,1.4,3.4,2.5,1.7c0,0,4.6-10,4.6-10c0.6-3.2-4,0.2-5,0.5c0-1.7,6.8-14.2,0-9.1
	l2.4-9.5c0.3-0.9-0.8-1.6-1.5-1c0,0.1-10.4,7.6-9.6,7.8c-0.1,0-0.1-0.1-0.2-0.1c-0.2-0.9,2.6-9.2-0.6-7.4c0,0-8.4,7.9-8.4,7.9
	c-0.2,0.2-0.3,0.4-0.3,0.6c-0.2,0-0.5,0.1-0.6,0.3c0,0-7.4,8.7-7.4,8.7c-1.1,1.7,1.5,1.7,2.5,1.4l-2.2,5.3c0.2-11.3-3.4-2.8-6.5,0.8
	c-0.7-8.3-6.6,7.5-7.5,8.1c-0.7,2,1.9,1.3,2.8,0.8l-3.7,18.9c-9.6-0.7-3.3,11.4-17,4.2c0.1-2.2-0.6-4-2-5c1.2-3.5-5.2-6.3-6.6-6.9
	c-2-3-4.9-2.6-9-5.7c0.1-0.3,0.2-0.6,0.4-1c1.5,1.6,3.6,0.8,4-1.1c2.5,1.4,3.8-1.2,4-3.7c3,2.2,5.5,1.3,5.2-1.8
	c2.5,1.1,3.9-1.7,3.6-3.9c2.6,1.3,4.7-1,4-3.7c2.8,1.6,5.1-0.5,4.3-3.4c3.4,1.3,3.9-2.5,2.9-5.2c3.4,1.3,5.3-1.5,3.7-4.4
	c2.9,0.2,3.5-2.8,1.9-4.8c4.9-0.2,5.5-3.8,2.6-6.5c4.5-1.3,5.8-4,2.5-6.2c5.2-1.7,4.7-4.8,0.1-6.1c5.4-2.7,5.8-6.2,0.6-7.2
	c5.8-5.4,6.5-6.7,3.7-8.7c3.2-3.2,4.5-5.9,1.2-7.3c3.9-4.2,5.9-6.8,2.6-8.7c11.7-10.3,17-23.9,4.7-16.9l1.9-2.3l-0.4-0.3
	c-2.6,3.4-5.3,4.4-9.6,7l13-16.8l-0.4-0.3L218.2,96c-2,1.2-10.8,6.3-11.5,6.8L227,73.4l-1.3-0.9l-22.3,32.4
	c-4.2,2.7-7.8,5.2-10.8,7.6c0.5-0.9,1.3-1.7,1.6-2.7c0,0,25.2-42.8,25.2-42.8l-1.3-0.8l-6.5,11.1c-0.1-1.1-0.6-2.1-1.2-2.9l0.7-1.2
	l-0.4-0.2l-0.6,1.1c-0.7-0.7-1.5-1.3-2.5-1.6l5.3-10.4l-0.4-0.2L207,72.3c-0.4-0.1-1-0.2-1.4-0.1c-0.1-0.9-0.4-1.7-0.8-2.5l1-2.1
	l-0.4-0.2l-0.9,1.9c-0.7-1-1.6-1.8-2.7-2.3l4.1-9.3l-0.4-0.2l-4.1,9.3c-0.9-0.3-1.9-0.5-2.9-0.4l0.9-2.1l-0.4-0.2l-1,2.4
	c0,0-0.1,0-0.1,0c-0.3-1-0.7-1.9-1.3-2.7l3.7-9.7l-1.5-0.6l-3.5,9c-1.7-1.4-4.4-2-6.7-1.2l3.6-11.4l-1.5-0.5l-3.2,10.3
	c-0.5-0.8-1.2-1.5-2.1-2.1l0.2-0.7l-0.5-0.1l-0.2,0.6c-0.9-0.5-1.8-0.8-2.8-1l2.5-9.7l-0.5-0.1l-2.5,9.8c-1-0.1-2.1,0.1-3,0.4
	c-0.1-0.3-0.2-0.5-0.4-0.7l0.3-1.2l-0.5-0.1l-0.2,0.7c-0.7-1-1.7-1.9-2.8-2.5l1.7-8.7l-0.5-0.1l-1.7,8.6c-2.1-1.1-5.1-1.1-7.2,0
	l1.5-10.7l-1.5-0.2L166,52.1c-1.5-1.6-3.4-2.6-5.7-2.9l0.7-8.5l-1.6-0.1l-0.7,8.6c-1,0.1-2,0.3-2.9,0.6l0-0.4l-0.5,0l0,0.7
	c-0.1,0-0.1,0.1-0.2,0.1c-0.9-0.8-1.9-1.4-2.9-1.9l0.2-8.3H152l-0.2,8.1c-2.2-0.8-4.9-0.8-7.1,0.1l-0.2-8.2l-0.5,0l0.2,8.4
	c-1,0.5-2,1.1-2.8,1.9c-0.3-0.1-0.5-0.3-0.8-0.4l0-0.4l-0.5,0v0.2c-0.8-0.3-1.7-0.5-2.6-0.6l-0.7-8.5l-1.6,0.1l0.7,8.4
	c-2.1,0.3-4.1,1.2-5.5,2.7l-1.4-9.9l-1.5,0.2l1.5,10.7c-2-1-4.6-1.2-6.7-0.3l-1.7-8.5l-0.5,0.1l1.7,8.6c-1.2,0.6-2.3,1.4-3.1,2.4
	l-0.1-0.3l-0.5,0.1l0.2,0.7c-0.3,0.4-0.5,0.8-0.7,1.2c-0.7-0.3-1.5-0.4-2.3-0.4l-2.5-9.8l-0.5,0.1l2.5,9.7c-2.7,0.1-4.9,1.5-6.2,3.6
	l-3.2-10l-1.5,0.5l3.5,10.8c-2-0.6-4.2-0.2-5.9,0.9l-3.2-8.5l-1.5,0.6l3.4,8.9c-0.9,0.9-1.5,2-1.8,3.3c-0.1,0-0.2,0-0.3-0.1l-0.8-2
	L97,64.7l0.7,1.7c-1-0.1-2.1,0.1-3,0.5l-4-8.7l-0.4,0.2l3.9,8.7c-1.1,0.6-1.9,1.4-2.6,2.4l-0.4,0.2l0.1,0.3
	c-0.3,0.7-0.6,1.4-0.6,2.2c-0.4,0-0.8,0-1.3,0.1l-5.1-10L84,62.6l5.1,9.8c-1.1,0.3-2.1,0.9-2.8,1.7l-0.3-0.6l-0.4,0.2l0.4,0.7
	c-0.6,0.8-1,1.7-1.1,2.8L78.7,67l-1.3,0.8l26,44c0,1.5,0.9,2.1,1.3,2.2l0.7,1.1c-3.3-3.2-7.4-6.5-12.3-10L71.1,73.5l-1.3,0.9
	l19.6,28.3c-0.6-0.4-3.7-2.4-5.9-3.8l0.2-0.2l-3.7-5L79.6,94l3.3,4.5c-6.3-2.1-14.4-13.9-18.3-18.8L64.2,80L75,93.7
	c-3.4-2.1-5.8-3-7.5-4l-0.1,0.1c-13-5.2,2.5,15.7,6.6,18c-3.1,1.8-1.3,4.4,2.7,8.7c-3.4,1.4-2.1,4.2,1.1,7.3c-2.8,2-2,3.4,3.7,8.7
	c-5.2,1-4.7,4.5,0.6,7.2c-4.5,1.3-5.2,4.5,0.1,6.2c-3.4,2.2-2,4.9,2.5,6.2c-2.9,2.7-2.4,6.3,2.6,6.5c-1.6,2.1-1,5,2,4.8
	c-1.5,2.9,0.3,5.7,3.7,4.4c-1,2.7-0.5,6.5,2.8,5.2c-0.8,3,1.5,5,4.3,3.4c-0.5,2.6,1.1,5.1,4.1,3.7c-0.3,2.3,1,5,3.5,3.9
	c-0.2,3.2,2.3,4,5.3,1.8c0.1,2.3,1.6,5.1,4,3.7c0.4,1.9,2.4,2.6,4,1.2c0.3,0.9,0.6,1.8,1,2.7c-2.5,1.8-5.8,2.2-6.9,4.6
	c-1.3,0.6-8.3,3.5-6.6,6.9c-0.8,0.7-1.8,1.8-2,4c-2.3,1.1-5.1,2.4-8.9,2.5c-0.5-2.1-5-7.5-8.2-3.5c0.8-1.3,0.4-3.3-0.7-4.2
	c4.5-4,12.5-4,13.8-9.6c0.5-1.8,2.2-3.1,3.2-4.7c-0.6-1-5.5-2.1-11.5,1.7c0.9-2-0.2-5.6,0.4-7.7c0.4-1.2,1.1-0.9,1.3-1.7
	c-5.2-2.6-10.4,5.5-12.2,14.8c-0.1-0.9-0.6-1.7-1.2-2.3c0.7-1.4,2.2-5.6,1.7-10.6c-0.3-2.8-1.3-3.7-0.3-7c-0.6-3.4-8.2,9.1-8.5,10.2
	c-0.3-0.5-0.6-0.9-1.1-1.3c4.3-4.8,2-13.8,4.2-18.8c-0.7-0.8-7.8,1.9-9.3,9c-0.7-0.1-1.5,0.1-2.1,0.5c2.1-5.3,5.9-5.5,4.2-17.2
	c-0.2-1.2-0.6-3.3,0.8-5c0.2-0.2,0.2-0.5,0.1-0.7c-0.7-0.7-4.1,0.2-6.3,4.3c-1-2.9-2.7-3.1-2.6-6.7c0-0.2-0.1-0.4-0.3-0.5
	c-1.2-0.1-4.8,2.9-4.5,12.9c-3-2.3-5.1-1.9-6.8-5.2c-0.3-0.5-1-0.4-1.1,0.2c-0.6,0.4-0.8,13.8,9.2,19.4c-3.2-0.3-4.3-0.7-7.7-3.9
	c-1.8,1.8-1.6,6.5,2.4,9.6c-1.4,0.1-3.4,0-4.9-1.2c-0.4-0.3-1,0-1,0.6c0.8,5.2,6,10.6,15.1,10c-0.1,0.8,0.1,1.5,0.5,2.1
	c-4.1,0-10.4,0.1-12.3-1.6c-0.9,0.5-0.5,4.6,3.4,6.7c-0.3,0.9-5.9,0.6-5,2c0.2,0.3,4.6,6.6,18.1,2.3c1.7,2,5.3,0.9,5.7-1.7
	c0.8,0.1,1.7,0.3,2.5,0.8c-1.5-0.1-3,0.8-3.6,2.1c-1.4,0.1-2.6,0.9-3.1,2c-6.1,2.5-4,5.7-11.1,9.1c-1.4,1.7,4.2,3,10.6,1.8
	c-1.2,2.1-2.9,6.6-0.8,12.8c0.2,0.5,0.9,0.6,1.1,0.1c3.8-6.3,8.9-4.7,10.8-14.2c3.5,1.4-3.8,6.3,5.2,7.5c0.5,0,2.6,4,4.9,2.1
	c0.4,0,4.2-0.8,6.6-3.2c8,8.7,2.3,17,6.3,20.4c8.6-2.4,0.7-18.7-4.7-24.4c0-0.5-0.1-1-0.3-1.5c0.6-0.7,6.9-2.6,11-3.7
	c-1.2,1.9,1.1,2.2,2.8,2.5c0.4,1.2,1.4,1.3,2.7,1.3c7.6,0.3,12.2-5.7,18.7-7.3c0.4,2,0.8,3.3,1.3,3.9c0,0.6-0.1,1.4,0,2.4
	c-4.5,1.8-21.6,26.5-10.7,23c-0.3,2.4-1.3,8.9,3.8,5.6c0,1.7,0.2,4.7,1.7,6.7c1,0.1,2.1-0.4,3.7-1.3c0.9,4.9,3,11.1,8.5,3.8
	c4.1,7.1,7,9,12.8-1.1c1.1,1.3,3.2,2.9,4.9,3.7c1.5-0.4,2.4-1.4,3.7-6.1c3.8,2.9,5.4-0.3,5.8-5.5c1,0.4,2.6,0.7,4.1,0.6
	c1-1,0.9-4,0.6-7.3c7.2,2.6,2.3-13.9-12.1-24.2c0.3-0.7,0.7-2.1,1-5.2c0.2-0.2,0.4-0.4,0.6-0.6c1.9,1.2,6.2,1.7,7.5,3.6
	c2.7,2.8,13.5,7.1,16,3.4c1.2-0.3,3.3-0.6,3-1.7c3.5,1.8,11.8,0.9,10.7,6.5c-2,2.6-2.9,0.4-5.3,1.4c0,0-14.1,13.3-14.1,13.3
	c-1.2,1.7,1.3,1.8,2.4,1.7c-0.7,1.1,0.5,1.8,1.7,1.9c0,0.7,0.5,1.1,1.1,1.4c-2.3,4.7,2.9,2.1,5.2,2.8
	C191.9,244.4,191.9,246.6,193.3,246.6z M97.1,214.9c0.4-0.9,0.7-1.8,0.5-2.8c1.3,1.8-1.8,3.9,0.1,5.3
	C96.4,217,96.5,215.8,97.1,214.9z M89,206.2c-0.1,3.4-5.4,3.5-5.3,0c-0.1-1.6,1.5-3,3.1-2.6C88,203.8,89,204.8,89,206.2z
	 M88.4,209.1c-0.1,0.1-0.2,0.2-0.3,0.4c-0.1,0-0.1-0.1-0.1-0.1C88.1,209.3,88.3,209.2,88.4,209.1z M91.2,183.7c1-0.8,2-1.2,2.7-1.4
	c-0.5,1-1,2.1-0.4,3.7c0.5,2.7-0.8,6.3-0.8,6.3c-0.5,2.7,6-4.3,11.3-2.6c-6.4,12.2-7.7,6.2-16.1,13.2c-0.1,0-0.2-0.1-0.2-0.1
	c4-4.5,8.1-9.2,13.6-11.8c-3.9,0.7-7,3.4-9.7,6.2c0.5-1,1.1-2.1,0.9-3.3c-0.3,1.4-4,6.2-4.7,7.5c-0.1-1.1-0.5-2-1.2-2.5
	c1.4-4.9,3.2-9.7,5.6-14.3c-3.2,4-5.2,8.8-6.3,13.7c-0.4-0.2-0.8-0.3-1.2-0.3C86.2,189.4,88.9,185.4,91.2,183.7z M83.9,199
	c2-0.5,3.5,1.7,2.8,3.5c-1.2-0.1-2.5,0.3-3.2,1.3C81,203.1,81.4,199.3,83.9,199z M82.6,204.6c0,0.1,0,0.3,0,0.4
	c-1.1-0.6-2.7-2.9-2.6-4.8c0.4,0,0.8,0,1.2-0.1C80.4,201.7,81,203.8,82.6,204.6z M82.8,196.8c0,1.4-1.2,2.5-2.8,2.4
	c0.2-1.4,0.9-2.8,2-4.3C82.5,195.4,82.8,196.1,82.8,196.8z M72.4,193.3c2.4-3,6.7,1.4,3.3,3.5C73.7,198.1,70.8,195.3,72.4,193.3z
	 M72.2,191.6c0.1,0,0.2,0,0.3,0c0,0.1,0,0.2,0,0.3c-0.1,0.1-0.2,0.2-0.3,0.2C72.2,192,72.2,191.8,72.2,191.6z M73.7,191.3
	c0.2-0.1,0.4-0.2,0.6-0.3c0,0.1,0,0.3-0.1,0.4c-0.2,0-0.3,0.1-0.5,0.1C73.7,191.4,73.7,191.3,73.7,191.3z M70.4,177
	c-0.1-3.8,3-7.4,6.4-8.9c-1.3,5,0.4,12.7-3.5,16.7c-0.2-0.1-0.3-0.1-0.5-0.1c1.8-4.3-0.7-9.4,2.1-13.5c-3.8,3.6-1.4,9.1-2.8,13.5
	c-0.5,0-1,0.2-1.5,0.4C71.2,182.3,70.3,179.7,70.4,177z M71.6,185.7c3.5-0.8,4.5,4.6,0.9,5C69.5,191.2,68.7,186.3,71.6,185.7z
	 M70.4,192.4c0.2,0.5,0.5,0.9,0.7,1.2c-0.1,0.2-0.1,0.3-0.1,0.5c-0.2-0.3-0.4-0.5-0.6-0.7C70.5,193.1,70.5,192.7,70.4,192.4z
	 M70,194.8c0.2,0.3,0.3,0.6,0.4,0.9c-0.3-0.1-0.6-0.2-0.9-0.2C69.7,195.2,69.9,195,70,194.8z M69.5,193.3c-0.3,3.2-5.3,2.5-4.8-0.7
	C65,189.3,70,190.1,69.5,193.3z M69.1,185.7c-0.5-2.1-0.5-3.4-0.5-4.3c0.3,0,0.5,0,0.8,0C69.6,182.8,69.6,184.3,69.1,185.7z
	 M69,176.5c0.1,0,0.1,0,0.2,0c-0.1,1.3,0.1,2.5,0.3,3.9c-0.2,0-0.5,0.1-0.7,0c0.1-0.8-0.8-1.4-1.4-1c0,0-0.1,0-0.1,0.1
	C66.2,178.3,67.4,176.5,69,176.5z M58.7,175.2c-6.6-4.2-7.3-11.6-7.1-15c14.4,10.8,4,0.5,10.5-8c0.6,3.6,2.5,3.6,3.1,7.5
	c1.2,2.4,1.7-4.4,5.2-5.2c-0.8,2.1-0.2,3.7-0.1,5.2c1.3,8.2-1.7,11.5-1.7,11.5c-5.8,7.8-2.4,13.3-1.1,9.7c0.1,0.8-0.4,4.5,1.3,7.1
	c0,1.1,0.4,2,1.1,2.7c0,0.2,0.1,0.3,0.1,0.5c-0.5-1-1.5-1.6-2.7-1.7c-0.7-0.6-1.5-1-2.3-1.4c0.2-0.6,0.1-1.3-0.1-1.8
	c0.1-0.1,0.1-0.1,0.2-0.2c1.5,1,2.6,2.3,3.5,3.8c-0.5-1.8-1.5-3.5-3-4.5c0.2-0.5,0.3-1,0.3-1.6c0.5,0.8,0.9,1.6,1.4,2.4
	c0.2-2.2-1.3-4.1-2.9-5.3c0-0.9-0.7-1.9-0.6-2.7c0.3-0.2,0.6-0.5,0.8-0.8c0.1,0.6,0.2,1.1,0.3,1.6c-0.1-2.7,1-6.9,1.4-9.6
	c0.5-3.9,0.4-8,2.6-11.5c-1.6,1.2-2.4,3.3-2.5,5.3c-0.1-0.5-0.2-1-0.3-1.4c0.5,4-0.5,7.8-1.2,11.7c-0.4-0.6-0.8-1.1-1.4-1.4
	c0.7-5.8-2.4-11.1-1.4-16.8c-2.4,4.4,0.7,9.1,0.7,13.6c-0.5-1-1.1-2.1-2.1-2.6c1.3,1.6,1.9,3.5,2.2,5.5c-0.5-0.2-1.1-0.1-1.7,0
	c-2.2-3.7-7.1-5-8.7-9.4c0.9,4.6,5.6,6.2,8.2,9.6C59.4,172.6,58.6,173.8,58.7,175.2L58.7,175.2z M62.8,184c-0.8-0.3-1.8-0.2-2.6,0.2
	c-0.3-4.3,6.6-2.6,4.3,1C64.1,184.7,63.5,184.2,62.8,184z M64.2,187.2c0,3.1-4.8,3.2-4.8,0C59.3,184.1,64.2,184.1,64.2,187.2z
	 M59.7,175.9c-1-3.7,4.7-4.6,4.7-0.7C64.5,177.9,60.4,178.4,59.7,175.9z M62.7,178.8c-0.2-0.1-0.3-0.2-0.5-0.3c0.2,0,0.3,0,0.5,0
	C62.7,178.6,62.7,178.7,62.7,178.8z M52.4,175.7c2.7,3.7,9.6,2.9,10.8,5.1c-1.4-0.3-2.9,0.4-3.5,1.5c-1.9-1-3.4-2.4-5.2-3.6
	c1.2,1.9,2.8,3.5,4.8,4.5c0,0.1-0.1,0.1-0.1,0.2c-0.9,0-1.7,0.1-2.5,0.2C52.6,181.1,51.9,177.5,52.4,175.7z M64,191.5
	c-10,0.5-13-5-13.9-7.6c3.3,1.1,6.2,0.9,6.6-0.2c0.8,0.1,1.6,0.1,2.4,0.2c0,0.3,0.1,0.6,0.1,0.9c-0.4,0.5-0.7,1-0.9,1.7
	c-1.5-0.1-3,0.1-4.5-0.4c1.2,1,2.9,0.9,4.4,1.2c0,3.4,4.8,4.4,6.3,1.5c0.5,0.2,1,0.4,1.5,0.7C65.2,189.8,64.4,190.6,64,191.5z
	 M73.2,202c0,3.1-4.8,3-4.8-0.1C68.4,198.8,73.3,198.8,73.2,202C73.2,201.9,73.2,201.9,73.2,202z M73.8,206.7c0.1-3,5.1-3.1,5.1,0.1
	C78.9,210.2,73.9,210,73.8,206.7C73.8,206.7,73.8,206.7,73.8,206.7z M70.6,208.5c0.2-1.1,1.1-1.9,2.2-2c-0.1,1.6,1.1,3.1,2.5,3.7
	C74.1,212.8,70.3,211.1,70.6,208.5z M88.9,219.4c-0.4,0.5-0.4,1.1-0.5,1.8c-0.2-0.5-0.3-1.1-0.1-1.6c-2.4,0.3-3.3,2.4-2.3,4.5
	c-1.6-2-0.3-4.8,2.3-4.5c0.3-0.7,0.9-1.2,1.7-1.4c-0.4,0.3-0.7,0.6-1,0.9C89.1,219.2,89,219.3,88.9,219.4z M90.8,225.5
	c-1,0-1.8-1-1.5-2c0.2,1.2,1.3,1.8,2.4,1.8C91.4,225.5,91.1,225.5,90.8,225.5z M98.7,221.3c8.5,11.2,9,18.7,5.3,21.6
	c-0.6-0.2-1.3-2-0.6-5.8c0.6-7-4.7-14.5-9.7-19.5c1.6,5.6-5.9,4.6-1.9,1.6c0.7-0.5,1.5-0.9,1.7-1.8c-1.2-1.1-2.3-2.1-3.3-2.9
	c-0.6,1-0.8,3.2-1.2,3.8c-1.4,1.7-2.7-0.4-1.4-2.3c-1.5-0.2-2.5,0.8-2.8,2.2c0-0.5,0-1,0.3-1.5c-1.3-0.2-2.6,0.2-2.8,1.6
	c-0.4-1.6,1.5-2.4,2.8-1.8c0.6-0.8,1.7-0.9,2.5-0.6c0.5-0.8,1.3-1.4,2.2-1.7c-0.5-0.4-1-0.7-1.4-1c0-0.1-0.1-0.1-0.1-0.2
	c-1.5,0.1-4.7,2.1-5,1.1c-1.1-2.5,2.7-2.7,4.3-2.2c-1.4-3.2-9.9-1.2-8.1,4c-1.5,9.6-5.9,8.3-10.1,13.8c-2.6-7.2,3.8-13.1,1.2-12.8
	c-4.4,1.4-8.2,0.8-10,0.2c5.7-3.1,4.2-5.7,9-8c0,0.6,0.2,1.1,0.5,1.6c-2.4,1.3-3.8,4-6.2,5.2c2.7-0.6,4.3-3.3,6.7-4.5
	c1.6,1.9,4.7,1.3,5.6-1c1.4,0.1,2.7-0.9,3.2-2.3c0.8-0.2,1.7-0.3,2.5-0.6c-0.8,0-1.6,0-2.3,0.1c0.1-0.5,0.1-1.2,0-1.7
	c0.6-2.8-4.1-4.6-5.5-4.5c-0.1-0.5-0.3-1-0.6-1.5c0.6,0.3,1.2,0.6,1.8,1c-4.3-4.2-11.4-5.9-16.6-2.2c3.8-1.4,7.9-1.6,11.7-0.1
	c-0.7,0.1-1.3,0.4-1.8,0.8c-4.3-1.2-8,1.5-11.7,2.8c3.7-0.1,7.2-2.8,11.2-2.3c-0.7,0.9-0.8,2.2-0.4,3.3c-9.2,2.9-13.8,0.4-15.5-1
	c3.7-0.7,5-1.5,5.1-2.5c-2.2-1.1-4.2-2.5-4.3-4.4c4.6,1.7,12.8,0,17.9,1.9c0.3,0.1,0.7-0.1,0.8-0.4c0.6,0.7,1.4,1.2,2.3,1.3
	c2.2,4.6,3.5,3,2-0.3c0.5-0.2,0.9-0.5,1.2-0.9c0.3,2.2,1,4.4,1.9,6.4c-2.1-7.6-1.5-15.9,2.7-22.7c-2.9,3.3-4.5,7.5-4.8,11.8
	c-0.4-0.5-1-0.8-1.6-1c0.6-4.9,3.5-8.8,6.9-13c1,4.2,0.8,13.3-0.8,15c-3.4,3.7-4.1,10.5,1.2,12.9c0.1,1.8,1.7,3.6,4,3.4
	c1.9,1.5,3.7,3,5.3,4.5c0.1-0.9-0.1-2.1-0.9-2.8c-0.5-0.3-0.9-0.7-0.8-1.3c0.3-1.6,2.5-0.8,2.7,0.4c0.4,1.3-0.2,2.6-1,3.7
	C94.6,216.7,96.8,218.9,98.7,221.3z M181.8,198.7c2.4-0.3,6.9,2.7,7,4.2c-0.2,0.4-1.1-0.7-2.7-1
	C184.1,201.5,181.3,198.8,181.8,198.7z M185.2,202.7c2.4,1.1-4.9,0.9-6.1-1c-0.4-0.6-3.9-3.6-5.4-4.5c1,0.5,3.8,1.9,8.9,5.1
	c-7.7-7.7-9.3-5-8.6-7C182.6,198.5,180.5,200.5,185.2,202.7z M171.3,203.2c0,0,2.7,1.4,4.4,2c0.3,0.1,0,2.1,1.2,3.1
	c1.2,1-5.6,0.4-7.5-4.9c-0.5-1.3,3.2,3.2,4.8,3.2C174.3,206.5,171.3,203.2,171.3,203.2z M178.9,211.3c0.2,0-2.7-1.5-3.1-2.1
	c0,0,1.5,0.5,2.9,0.2c0.5-0.1,0.7,1.6,2.2,2.6c0.2,0-5.5,0.9-7.6-3C173,208.5,176.9,211.3,178.9,211.3z M180.7,209.9
	c0,0,1.2,0.3,1.8,0.1c0.2-0.1,1.5,1.5,2.4,1.7C185,211.9,181.9,213.4,180.7,209.9z M176.7,205.6c0,0,2.7,0.5,4.7,0.5
	c0.1,0,1.8,1.8,2.8,2.1C185.2,208.3,177.2,211.2,176.7,205.6z M170.7,201.9c-0.6-0.3,0.6-1.5,0.7-1.6c0-0.1,14.5,8.6,0.6-0.8
	c0,0,1-1,1-1.7c7.1,4.1,3.9,3.9,7.7,7.1C180.7,205,177.5,205.5,170.7,201.9z M179,196c1,0,2.2,0.5,2.4,1.6c0.1,0.7-3.7-1.6-3.7-1.6
	S178.3,195.9,179,196z M178.1,195.4c-0.7-0.1-5.2-0.1-3.3-2C174.8,193.4,177.4,194.5,178.1,195.4z M177.5,189.8
	c-0.1,0.1-1-0.4-1.4-0.9c0.2-0.7,0.4-1.5,0.6-2.2c0.7,3.2,0.5,3,0.6-0.3C178.6,185.9,178.1,188.9,177.5,189.8z M178.4,147.4l-3.1,4
	c-0.3-0.7-0.4-1.1-1-1.3l2.6-3.7l-1.1-0.8c-1.5,1.2-3.4,5.9-5.7,6c-0.1-0.2-0.1-0.3-0.2-0.4c0.7-1.2,3.7-5.9,3.8-7.2l-1-0.7
	l-3.6,6.1c-0.2-0.5-0.5-0.9-0.7-1.4l2.9-5.7L171,142l-2.8,5.5c-0.2-0.3-0.3-0.5-0.5-0.8l1.9-3.9l-0.4-0.2l-1.7,3.6
	c-0.1-0.1-0.1-0.2-0.2-0.3c0-0.2,0-0.4-0.1-0.7l4.2-9.4l-0.4-0.3l-4.1,9.2c-0.2-0.3-0.4-0.6-0.5-0.9l0.6-1.5l-0.4-0.2l-0.5,1.1
	c0-0.1-0.1-0.1-0.1-0.2l2.2-5.7l-0.7,0.5l1.3-3.9l-0.7-0.5l-2.9,7.5c-1.5-2,0.6-6.8,1.2-8.8l-0.9-0.6h1.1l2.5-7.9l-1.3-1l-3.8,12.3
	c-0.5-0.8,1-4.9,1.2-5.7l-0.5-0.1l-1,3.6c-0.9-1.9,1.2-8.4,1.7-10.2l-0.6,0.4l-1.6,6.1c-0.4-2.6-0.8-4.9-1.6-6.7l0.7-3.7l-0.4-0.3
	l-0.7,3.3c-0.1-0.2-0.2-0.3-0.3-0.5c0.8-0.8,0.3-2-0.8-2.5l0.5-3.1l-0.5-0.1l-0.5,2.9c-0.3-0.2-0.6-0.4-0.9-0.6l0.6-4.4l3.3,0.5
	l-0.8,3.8h0.5l0.7-3.7c1,0.2,3.6,0.6,3.7,0.6l-0.1,0.3l0.3,0.8l0.3-1.1c1,0.2,2,0.3,2.9,0.4l-0.8,2.6h1.6l0.8-2.4
	c1.1,0.1,2.2,0.3,3.2,0.4l-1.5,3.8h1.7l1.4-3.7c1.1,0.1,1.9,0.1,3.1,0.1l-0.5,1.2l0.2,0.7l0.8-1.9c0.8,0.1,1.7-0.2,2.4,0.1l0.1-0.2
	c0.7-0.1,1.4-0.1,2.1-0.2l-2,3.8h0.5l2-3.9c1.8-0.3,3.2-0.8,4.7-1.4c-0.9,2-3,3.5-4.3,5l-0.4-0.2c-2.2,3.8-5.4,7.4-5.1,11.9
	l-4.3,7.3l0.7,2l4-6.8c0.3,1.2,0.8,2.2,1.3,3.2l-3.6,5.2h1.9l2.6-3.8c0.5,0.7,1,1.5,1.4,2.2l-5.4,6.9l0.2,0.6l5.4-7
	c0.3,3.1,0.4,7,1.9,8.6c-2.7,2.8-3.7,5.6-4.2,6.9c-2.1,0.1-4,0.6-5.4,1c-0.3-1.5-0.8-3.6-1.3-5l3.3-4.2L178.4,147.4z M168.5,150.5
	c0-0.1-0.1-0.4-0.1-0.5c0.3,0.6,0.5,1.4,0.4,2.1c-0.2,0.1-0.4,0.1-0.6,0.2C168.6,151.8,168.5,151.1,168.5,150.5z M164.7,150.7
	c0-0.3,0-0.7-0.1-1c-0.8-0.1-1.5-0.7-2-1.3c0.4,0.7,0.6,1.6,0.6,2.4c-0.6-1-1-2.2-1.4-3.3c0.1,0.1,0.1,0.1,0.2,0.2
	c-0.1-0.2-0.2-0.3-0.3-0.4c-0.1,0.6-0.1,1.3-0.7,1.8c-0.1,0.1-0.1,0.1-0.2,0.1c0.3,1.4,0.4,2.8,0.1,4.1c-0.2,0-0.3,0-0.5-0.1
	c0,0,0-0.1,0-0.1c0.3-1.3,0.3-2.6,0.3-4c-1.2,0.1-1.8-1.4-2.4-2.3c0,0,0.1,0,0.1,0c1.4,1.8,2.8,2.9,2.8-0.3c0.2,0,0.3,0,0.5,0
	c0,0.2,0,0.4,0,0.6c1.5,1.7,4.6,3.6,4.3-0.3c0,0,0.1,0,0.1,0c0.4,1.1,0.2,2.9-1.4,2.8c0.2,0.6,0.3,1.2,0.4,1.9
	c0.4,0.5,0.9,0.9,1.5,1.1c-0.2,0.1-0.5,0.1-0.7,0.2c-0.4-0.3-0.6-0.6-0.8-1c0,0.4,0,0.8-0.2,1.2c-0.2,0-0.4,0-0.6,0.1
	C164.8,152.4,164.7,151.6,164.7,150.7z M163.7,153.2c-0.3,0-0.6,0-0.8,0c-1-0.8-1.5-2.1-1.9-3.3c0.7,1.2,1.4,2.5,2.6,3.2
	C163.6,153.2,163.7,153.2,163.7,153.2z M157.1,151c0,0.3,0,0.6-0.1,0.9c0,0,0,0.1,0.1,0.1c0.2,0.3,0.4,0.5,0.7,0.8
	c-0.1,0-0.3-0.1-0.4-0.1c-0.1-0.2-0.3-0.4-0.4-0.7c-0.1,0.2-0.1,0.3-0.2,0.5c-0.2-0.1-0.3-0.1-0.5-0.2c0.4-0.8,0.4-1.7,0.5-2.5
	c-1.1,0.1-1.7-1.1-2.1-1.8c0,1-0.1,2.6-1.3,2.9c-0.9-0.7-2.1-1.2-2.3-2.4c-0.1,0.1-0.2,0.2-0.3,0.4c0,0-0.1,0-0.1-0.1
	c-0.1-0.1-0.2-0.2-0.3-0.3c0.5-0.7,0.8-1.6,1.1-2.5c0.1,0.1,0.2,0.2,0.3,0.4c-0.2,0.7-0.4,1.4-0.7,2.1c1.7,3.3,3.5,1.9,3.1-1.3
	c0.1,0,0.2-0.1,0.3-0.2c0,0,0,0,0.1,0c0.5,2.4,3,3.5,2.8,0.1c0.2,0,0.3,0.1,0.5,0.1c-0.1,0.9,0,2.1-0.9,2.6
	C157,150.1,157.1,150.5,157.1,151z M153.7,150.9c0,0-0.1,0-0.1-0.1c0,0,0-0.1-0.1-0.1C153.6,150.9,153.6,150.9,153.7,150.9z
	 M157.9,145.8c-1.6-0.3-2.4-2.3-3-3.6c-0.3,6.6-2.6,2.9-4.6,0c0.2,0.8-0.7,6-2.9,2.7c-0.5-0.7-1-1.5-1.5-2.2
	c-0.7,3.7-2.9,6.8-4.6,1.1c-1.8,2.4-5.5,5.3-5.4,0c-1.1,0.6-2.9,1.7-4.1,1.9c0-1.4,4.3-3.9,5.2-4.9c1.7-1.4,3.4-2.9,4.7-4.7
	c-0.4,3.6,3,1.3,3.8-0.5c-1.5,1.2-3.8,3.4-3.4-0.2c0.4-0.6,0.7-1.3,0.9-2c1,1.5,3.2-0.9,2.8-2.2c-0.2,0.8-1.6,2.8-2.3,1.9
	c-0.2-2.5-1.2-5-3.5-6.5c0-0.5,0-1-0.1-1.5c3.4,0.9,6.2,3.1,3.9-2.8c-0.5-2.3-5.4-2.7-5.6-4.6c0-0.2-0.1-0.3-0.3-0.4
	c3.7-6.5,17-0.7,21.9,2.4c0,0,0,0,0.1,0c0.6,0.6-1.2,0.6-1.4,0.6c3,1,4.1,11.2,0.1,5.6c0.3-1,0.3-2.1,0.1-3.2
	c-0.4,1.6-0.6,5.7-2.8,2.9c0.2,1.5,2.3,2.1,2.6,0.4c0.3,0.9,1.1,2.5,2.3,2.1c-0.4,3.9-1.2,3.1-3.2,0.6c0.4,1,0.9,2.1,1.8,2.7
	c-0.3,1.7-0.4,4.1-2.3,2c0,0,0,0-0.1,0l0,0c0.2-1.2,0.2-2.5,0-3.7c-0.6,1.7-0.1,7.7-3.2,4.5c0.5-1,0.5-2.1,0.4-3.2
	c-0.5,1.6-0.7,4.8-2.8,2.5c0.3,1,1.7,2.1,2.4,0.8c1.2,2,3,1.7,3.2-0.7c0.3,0.4,0.6,0.9,1.1,1.2c-0.6,4-1.5,3.1-3.5,0.4
	c0.4,1.1,0.9,2.2,1.8,2.9c-0.3,0.9-0.1,2.3-0.9,2.9c-0.9-0.3-1.4-1.4-2.1-2.2c0.3,1.1,1.5,3.9,2.8,2.3c0.5-0.9,0.4-2,0.3-2.9
	c0.1,0,0.2,0.1,0.3,0.1c0.1,0.9,1.2,4.9,1.3,5.6c0.3-1.9-0.3-3.9-1.1-5.6c0.1,0,0.1,0,0.2-0.1c0.6,1.3,1.3,2.6,2.5,3.4
	c0,0,0,0,0.1,0c2.6,1.2,2.5-3.2,2.4-4.8c0.6-0.2,0.6-0.9,0.7-1.3c0.6,3.4,1.4,7,3.3,9.9c0.2,0.3-0.1,0-0.4-0.2c-0.1-0.1-3.2-3-3.2-3
	c-0.4,5.3-2.1,1.8-3.3-0.3c-0.2,0.2,0.2,3.4-1.1,3.6C158,145.8,157.9,145.8,157.9,145.8z M147.3,146.6c0,0.2-0.1,0.5-0.2,0.8
	c-0.2,0.2-0.4,0.5-0.7,0.7c0.2-0.5,0.4-1.2,0.6-1.7C147.1,146.4,147.2,146.5,147.3,146.6z M144.6,149.8c-0.1,0.1-0.2,0.2-0.3,0.3
	c-0.4-0.5-0.6-1.1-0.7-1.7c0.1,0,0.2,0,0.2,0C144,148.8,144.2,149.4,144.6,149.8z M139.7,148.9c-0.2,0.2-0.5,0.4-0.7,0.6
	c-0.1,0.1-0.3,0.2-0.5,0.2c-0.2,0.4-0.4,0.8-0.7,1.1c0,0.7,0,1.4,0.1,2.1c-0.2,0-0.3,0.1-0.5,0.1c0-0.7,0.1-1.4,0.3-2
	c0,0-0.1,0.1-0.1,0.1c-1.1,1.6-2.9,1.4-2.5-0.8c-0.4,0.6-0.9,1.2-1.5,1.7c0,0.5,0,0.9,0.1,1.3c0,0-0.3,0-0.4,0
	c0-0.4,0.1-0.8,0.2-1.2c-0.6,0.5-1.8,1.1-2.2,0.1c-0.2,0.3-0.4,0.5-0.6,0.7c-0.1,0-0.3-0.1-0.4-0.1c0.1-0.1,0.8-0.6,0.9-0.7
	c-0.2-0.6-0.1-1.2,0.2-1.8c-1.6-0.4-0.7-2.5-0.3-3.5l0,0c-0.6,3.3,0.2,3.7,2.7,1.6c-0.2-0.8,0-1.6,0.2-2.3c0.1-0.1,0.2-0.1,0.3-0.1
	c-0.4,1.8-0.2,3.5,1.8,1.8c0.1,0.1,0.2,0.1,0.4,0.2c-0.3,0.3-0.6,0.5-0.9,0.8c0,0.9-0.3,2.1,0.2,2.9c1.1-0.1,1.7-1.2,2.6-1.9
	c-0.9,0.2-1.1-0.9-1-1.6c0.1,0,0.3,0,0.4-0.1c0,2.5,2.2,0.1,3.1-0.6c-0.2,0.3-0.4,0.5-0.6,0.8c-0.4,4.1,0.6,3.6,3.1,1.1
	c-1.7,3.4-4.6,3.1-3.1-1C140,148.6,139.9,148.8,139.7,148.9z M120.6,154.3c-0.3,0.7-0.5,1.6-0.7,2.5c-1.4-0.5-3.2-1-5.4-0.9
	c-1-3.2-2.8-5.6-4.3-7.1c0.6-3,0.7-5.6,0.2-7.8c0.4-0.3,0.8-0.5,1.1-0.8l9.8,12.4c-0.2,0.4-0.3,0.8-0.5,1.2l-0.1-0.1l-0.4,0.3
	L120.6,154.3z M86.6,123.3c8.2,6.1,10.2,9.6,10.2,9.6c-9.4-3.4-12-10.8-11.8-10.8c2.2-0.7,7.2,1.4,7.2,1.4l0.4,2.5
	C89.1,124,86.5,123.2,86.6,123.3z M106.4,129.9c0,0.1-5.6-3.5-5.3-7.9c0-0.2,0.8-0.3,1.9,0.2c0.9,0.4,2,1.3,2.9,3.1
	c0.7,1.7,0.3,1.5-1.1-0.5C100.9,121.4,106.6,127.2,106.4,129.9z M104.6,132.7c-3.1,0.4-8.2-7.1-2.5-4.6c1.1,0.6,2,1.2,3.1,2.3
	c0-0.1-0.6,0-0.6,0.4c-0.5-0.2-2.4-2.1-3.3-1.9C101.3,128.9,104.2,131.1,104.6,132.7z M103.3,148.6c0.8-0.6,1.3,2.2-3.2,1.1
	c-0.2,0,0.1-3,3.1-3c0.1,0-2.2,2.5-2.2,2.5L103.3,148.6z M101.9,140.4c0,0-1.1,0.6-1.1,0.6c1.4,1.5,4.9,1.3,2.9,2.5
	C97.9,142.9,98.2,138,101.9,140.4z M103.5,138.5c1.3,1,0.6,2.2-0.9,1.2C101.2,138.8,101.8,137.3,103.5,138.5z M102.5,136.9
	c-1.4-0.9-4-2.1-3.1-3.6c0.8-1.2,3.9,1.2,3.9,1.4c0,0,0.5,1.7,1,2C104.7,137.1,103.7,137.7,102.5,136.9z M98.3,118.6
	c-0.4-0.3-4.9-3.8-7.4-5.7c0,0,9.2,9.5,9.2,10c-0.2,0.8,0.5,2.1,0.5,2.1c-10.9-8-16.8-20.5-1.5-8.3c1.6,1.5,1.5,1.2,1.7,2.5
	C101.3,120.9,103.1,122.3,98.3,118.6z M98.5,128c0,0.4-1.7-2.3-4-2.9c0,0,0.1,1.6,6.6,7.2c0,0-6.6,0-7.8-8.1c0-0.1,3.9-0.2,5.8,2.6
	C98.8,126.8,98.2,127.5,98.5,128z M98.6,134.4c0.6,2.7-0.1-0.2-3.9,0.2c-0.5,0,3.2,1.3,4.7,2.9c0.7,0.6-6.1-0.5-6.8-3.6
	C92.4,132.8,96,132.8,98.6,134.4z M100.8,139c0,0-2-0.2-2.6,0.9c-0.1,0.3-1-1.2-3.5-0.8c-0.5,0.1,3.2,0.7,3.9,2.7
	c0.3,0.8-4.9-0.6-5.8-2.9C92.5,137.9,98.2,137.5,100.8,139z M94.1,145.3c3.9-4.4,7.8-0.8,7.8-0.8c-2.6-0.2-3.8,0-6,0.7
	c0,0,7.1,0.1,6.6,0.5C97.9,149.1,93.8,145.5,94.1,145.3z M99,149l-4.5,2.1c0,0,3.4-0.5,4.3-0.7c4.8-1.2-2.5,4.2-5.7,1.2
	C92.5,149.4,100.2,146.7,99,149z M102.7,151.1c0.5-0.1-4.8,5.3-4.8,5.3l4.4-2.6c0.5,2.5-0.7,3.9-5.4,4
	C96.6,157.8,95.8,153.3,102.7,151.1z M102.5,156.9c0.2-0.3,3.1-1.7,1.1,0.8c-4.8,7.1-5.4,7,0.7,1.6
	C107.9,159.6,91.7,172.2,102.5,156.9z M105.4,161c0.1-0.3,1.5-2.9,1.2,0.6c-3.8,7.3-3.9,6.7,0.5,1.8
	C110.7,163.8,97.8,174.5,105.4,161z M108,165.4c0.1-0.1,0.9-1,1.2,0.1c-1.5,5.7-2.1,5.6,1.5,1.5c3-0.9,1.2,2.2-3,3.9
	C107.3,171,106.7,167.6,108,165.4z M112.2,161.3c0.1-0.1-1.7,3.8-1.7,3.8l3.2-3.3c1.5-1.4,0.8,2.5-3.6,4.2c-0.2,0.1-1.4-3.1,1.3-5.1
	C111.5,160.8,111,161.8,112.2,161.3z M112,169.1c0.3-0.3,0.7-2.2,1.5,0.1c-1.6,6-2,5.4,2.1,0.8c1.3-0.5,0.4,3-3.7,4.7
	C111.7,174.7,110.5,171.4,112,169.1z M114.9,169.5c-1.3,0.6-1.8-3.8-0.4-5.3c0-0.1,1.9-0.3,1.6,0.8c-0.2,0.6,0.7,1,1,0.5
	c0.4-0.6,0.9-1.5,1.4-0.8c-0.1,0.8-0.2,1.7-0.2,2.5C117.5,168.1,116.2,168.9,114.9,169.5z M118.4,162.6c-0.6-1-2.7,1.4-3,0.6
	c-0.3-0.7,0.2-3.5,0-3.3c-0.2,0.2-2.7,1-2.9,0.7c-0.3-0.2-0.4-2-0.5-1.7c-5.4,6.6-5.1,2.2-4-0.9c-5.6,3.2-2.2-3.1-1.9-3.6
	c-0.2,0.2-3.1,0.7-3.1,0.4c-0.3-3.8,2.9-4.8,2.7-4.8c-1.6,0-0.1-1.7-0.3-1.7c-3.9-0.2,0.2-2.1-0.5-3.3c-1.2-1,1.4-1.9,0.4-2.7
	c-2.2-1.9,1.1-1.7,0.1-2.8c-1.6-1.5-0.1-1.9,0.7-2.2c-4.2-3.3-1.8-3.4,0.8-2.9c-1.1-1.2-2.8-3.6,0-3c1.5,0.2-0.7-2.6,1-3.3
	c0.3-0.2,0.4-0.6,0.1-0.9c-1.2-1-2.3-3.7-1.5-4.5c7.8,0.7,8.8,13.7,2.3,17.5c0,7.9-1.8,7.8,3.5,15.3c1.3,3.5,4.1,1.6,7.2,3.4
	c-0.3,1.3-0.5,2.8-0.7,4.3C118.6,162.9,118.5,162.7,118.4,162.6z M113.4,123.2c0.6,0.2,1.2,0,1.9-0.2l2.5,4.8
	c-0.6,0.8-1.2,1.6-1.7,2.5c-2.4-4.7-6-10.3-8.9-15.1c3.8,2.3,3.1,5.3,5.4,7.6c0,0,1.1,2.1,1.1,2.1l0.4-0.2L113.4,123.2z
	 M119.2,126.3c-0.4,0.4-0.7,0.8-1.1,1.2l-2.3-4.5c0.5-0.1,1,0.1,1.5,0.3l0.1,0.2l0.2-0.1C118.8,123.8,119.2,125.1,119.2,126.3z
	 M115.4,132.2c0,0.1-0.1,0.2-0.1,0.3c0-0.1,0-0.2,0-0.4L115.4,132.2z M111.8,139.8c0.7-0.6,1.3-1.3,1.8-2l8.7,12.7
	c-0.3,0.3-0.6,0.9-1,1.6L111.8,139.8z M114.5,136.2c0.3-0.7,0.5-1.3,0.7-2c0,3,2,5.5,4.9,5.8l6.7,11.4c0,0-0.1,0.1-0.1,0.2
	C124.3,152.1,115.8,137.6,114.5,136.2z M127.2,135.8c0.2-0.3,0.4-0.6,0.6-0.9l0.6,1.6c-0.4,0.5-1,1-1.6,1.5l-0.5-1.1
	c0.2-0.2,0.4-0.5,0.6-0.7l0.2,0.5l0.4-0.2L127.2,135.8z M129.6,133.2c-0.2,0.4-0.3,0.7-0.4,1.1l-0.4-1.1c0.4-0.7,0.7-1.3,1-2
	l0.4,1.1C130,132.6,129.7,132.9,129.6,133.2L129.6,133.2z M128.9,137.9c1.5-1.1,1.1-3.1,1.9-4.4c2.3-2,6.2-4.4,4.4-8
	c1.1-0.5,2.1-0.5,3.3-0.5c0.4,2.8-0.2,6.3-2.8,7.9c0,0,0,0-0.1,0c-0.3,0.2-0.5,0.4-0.7,0.6c-0.1-0.7-0.5-1.8-0.4-2.5
	c-0.6,3.3,0.7,5-3.1,6.7c-0.1-1-0.8-2.1-0.7-3c-0.3,0.9,0.1,2.1,0,3c0.1,2.8-3.1,3.6-4.9,5.1c-1.7,1.6-1.8,0.9-1-0.8
	C126,140.4,127.7,139.2,128.9,137.9z M129.6,122.7c0,0.2,0,0.4,0,0.7c-0.2,0.2-0.4,0.5-0.5,0.7l-3.8-12c1.1-0.3,2.3-0.6,3.6-0.8l2,8
	c-0.6,0.6-1,1.3-1.2,2.2l-1.2-4.2l-0.5,0.1L129.6,122.7z M128,125.8c-0.4,0.6-1.3,2.2-1.3,2.2l-0.9-2.3c0.5-0.6,1.1-1.2,1.5-2
	L128,125.8z M125.6,118.1c-0.9-0.4-1.9-0.5-2.8-0.5l-1.5-3.8c0.8-0.5,1.6-0.9,2.5-1.2L125.6,118.1z M135.6,135.6
	c0.2-0.5,0.3-1.2,0.6-1.5l0.1,0.6l0.5-0.1l-0.2-0.8c0.4-0.3,0.8-0.6,1.1-0.9l1,4.9c-0.7,0.6-1.3,1.2-2,1.7L135.6,135.6z
	 M136.2,139.9c-0.6,0.5-1.1,0.9-1.6,1.3l-1.1-3.3c0.5-0.2,1.1-0.7,1.5-1.3l0.2,0.1c0,0,0-0.1,0-0.1L136.2,139.9z M138,132.4
	c0.2-0.3,0.5-0.6,0.6-1l0.5,2.7l0.5-0.1l-0.6-3.4c0.3-0.6,0.5-1.2,0.6-1.9l1,6.8c-0.5,0.6-1,1.2-1.6,1.8L138,132.4z M139.6,123.6
	c-2.9-0.6-6.2,0.3-7.5,3.1c-2.5-4.6-0.4-8.2,4.8-8c1.2,2.8,5.8,2.3,6,5.8C141.8,124.1,140.7,123.8,139.6,123.6z M133.5,127.3
	c0.2-0.4,0.5-0.8,0.8-1.1c0.2,0.6,0.4,1.6-0.4,2.9L133.5,127.3z M133.6,129.6c-0.4,0.5-0.8,0.8-1.2,1.1l-0.4-1.3
	c0.9,0.2,0.9-0.5,1.1-1.4L133.6,129.6z M132,131c-0.1,0.1-0.4,0.3-0.6,0.3l-0.7-2.1c0.2-0.3,0.3-0.6,0.5-0.9c0.2,0.3,0.3,0.8,0.6,1
	l-0.3,0.1L132,131z M136.7,116.9l-0.3-1.5l-0.5,0.1l0.3,1.8c-0.4,0-0.8,0.1-1.2,0.1l-1.3-6.6c1.1,0,2.2,0,3.3,0l0.6,4.3
	C137.2,115.6,136.9,116.2,136.7,116.9z M134.6,117.5c-0.5,0.1-1.1,0.3-1.6,0.5l-0.4-1.8l-0.5,0.1l0.4,1.9c-0.4,0.2-0.8,0.5-1.2,0.8
	l-2-7.7c1.2-0.2,2.5-0.3,3.9-0.4L134.6,117.5z M133.3,142.3c-0.3,0.3-0.6,0.5-0.8,0.7l-1-2.5c0.1-0.3,0.2-0.5,0.2-0.7
	c0.2-0.3,0.3-0.6,0.4-1L133.3,142.3z M126.5,138.5c-0.6,0.6-1.2,1.1-1.8,1.8l-0.7-1.2c0.7-0.4,1.3-1,1.9-1.6L126.5,138.5z
	 M124.4,140.7c-0.3,0.4-0.5,0.8-0.7,1.2l-0.1-0.2l-0.4,0.2l0.3,0.5c0,0.1,0,0.2-0.1,0.3l-1.7-2.8c0.6-0.1,1.3-0.4,1.9-0.7
	L124.4,140.7z M124.7,144.9c0,0,0.1,0,0.1,0l1.6,2.8l0.4-0.2l-1.5-2.7c0.3-0.1,0.6-0.4,0.9-0.6l2.2,4.3c-0.3,0.5-0.6,0.9-0.8,1.4
	L124.7,144.9z M128.1,152c0.1-0.6,0.4-1.1,0.6-1.7c0,0.7-0.2,1.3-0.2,2c-0.1-0.1-0.3-0.1-0.4-0.1C128.1,152.1,128.1,152,128.1,152z
	 M126.6,143.8c0.2-0.1,0.4-0.3,0.6-0.4l1.9,3.9l0.3-0.1c-0.2,0.3-0.4,0.6-0.5,0.8L126.6,143.8z M127.5,143.1
	c0.3-0.2,0.6-0.4,0.9-0.5l1.6,3.5c-0.2,0.3-0.4,0.6-0.6,0.8L127.5,143.1z M128.8,142.4c0.6-0.3,1.1-0.7,1.5-1l1,2.7
	c-0.2,0.2-0.3,0.3-0.4,0.5l-1-2.4l-0.4,0.2l1.1,2.7c-0.1,0.2-0.1,0.5-0.3,0.6L128.8,142.4z M141.3,129.8c0.6,1,0.8,2.2,0.5,3.4
	L141.3,129.8z M138.7,110.9c0.8,0,1.7,0.1,2.5,0.2l0.2,2.5c-0.9,0.1-1.6,0.4-2.2,0.7L138.7,110.9z M142.8,111.1
	c1.1,0.1,2.1,0.2,3.2,0.3l0.1,2c-1.1-0.1-2-0.2-3.1-0.1L142.8,111.1z M146.4,111.5c1.2,0.1,2.4,0.3,3.6,0.5l-0.1,2.3
	c-1.2-0.3-2.4-0.6-3.5-0.7L146.4,111.5z M151.8,114l-0.1,0.7c-0.4-0.1-0.9-0.3-1.3-0.4l0-2.3c1.1,0.2,2.1,0.3,3.1,0.5l-0.2,2.8
	c-0.4-0.2-0.8-0.3-1.2-0.4l0.1-0.9L151.8,114z M155,115.9l0.3-3.2c0.8,0.1,1.6,0.3,2.4,0.4l-0.5,3.8
	C156.4,116.6,155.7,116.2,155,115.9z M158.1,135c0.3,0.1,0.6,0.1,0.8-0.1c0.3,1.6,0.8,3.3,1.3,4.9c0.2-1.7-0.3-3.5-1.2-5
	c0.3-0.3,0.3-0.6,0.4-1c0.6,1.1,1,2.8,2.4,3.2c-0.4,5.3-1.6,5.7-4.6,1.3C158.1,137.6,158.1,136.1,158.1,135z M161.8,136.4
	c-1-0.6-1.5-1.8-2.3-2.6c0.2-0.7,0.1-1.4,0-2c0.2,0.1,0.5,0.1,0.8-0.1c0,0.2,0.1,0.4,0.2,0.5c0.3,0.5,1.1,1.1,1.6,0.4
	c0.1-0.1,0.2-0.2,0.2-0.3C162.3,133.6,162.5,135.5,161.8,136.4z M162,130.4c0,1.3-0.5,2.9-1.7,1.2c0.8-0.9,0.6-2.3,0.5-3.4
	c0.4-0.4,0.6-0.8,0.7-1.2C161.7,128.1,161.8,129.2,162,130.4z M158.2,147.4c0.8,1.6,1.4,3.5,1.2,5.4c-0.4-1.9-1-3.8-1.4-5.8
	C158.1,147.1,158.1,147.2,158.2,147.4z M196,118.2c1.3-1.4,3.3-3.1,5.6-4.6c10.5-6.2,4.9,3.1-5.5,11.3c-0.4-2.2,7.2-9.5,9.6-12.1
	c-0.5,0.4-7.4,5.7-7.6,5.8C192.9,122.8,196.1,120.3,196,118.2z M204.2,126l0.5-2.5c0,0,4.9-2.1,7.1-1.4c0.2,0-2.4,7.4-11.7,10.8
	c0,0,1.8-3.5,10.1-9.6C209.8,123.4,207.3,124.2,204.2,126z M188.2,149.1c-2.6-5.4-1.8-7.2-1.9-7.7c-0.9-3.8-4.1-6.5-4.5-10.4
	c-0.1-1.7,0.5-4.3,2.2-6.5c3-2.6,9.9-3.3,4.5,2.8c-0.5,0.9,2.1,1,0.5,3.5c-0.3,1.5,4.7-1.1,1.4,2.8c-0.8,1.7,5.6-1.3,0.7,3.3
	c-0.5,1.5,3,0.3-0.5,3.4c3.8,0.6,0,1.9,0.7,2.8c0.6,0.5,1.6,1.2,0.5,2c-0.2,0.1-0.2,0.4-0.1,0.5c0.8,0.8,2.6,2.7-0.3,2.7
	c-0.2,0,1.2,1.7-0.5,1.7c-0.1,0,3.1,1,2.7,4.8c0,0.3-2.9-0.2-3.1-0.4c-0.2-0.1,1.8,2.2,1.1,4.4c-0.1,0.3-2.2-0.1-3-0.8
	c-0.2-0.2,1.2,2.9,0.6,4.4c-0.1,0.2-2.7-0.7-4.4-3.5c-0.2-0.2-0.2,1.5-0.5,1.7c-0.3,0.3-2.8-0.5-2.9-0.7c-0.2-0.2,0.3,2.6,0.1,3.3
	c-0.4,0.8-2.7-1.7-2.9-0.6c-0.1,0.3-0.4,0.4-0.6,0.2c-1.6-5.4,1-4.8,5.2-5.4C184.2,155.6,187.1,151.5,188.2,149.1z M190.5,126.6
	c0.1-2.4,3.7-5.4,5.2-4.5c0.3,4.4-5.3,7.9-5.3,7.9c-0.2-2.1,3.1-6.2,3-6.2C192.2,124.2,190.5,126.9,190.5,126.6z M193.6,146.7
	c3-0.1,3.2,2.9,3,3c-4.5,1.2-4.1-1.6-3.2-1.1l2.4,0.6C195.8,149.1,193.5,146.7,193.6,146.7z M192.9,143.5c-1.7-1.5,1.6-0.9,3-2.5
	l-1.2-0.6C198.4,138,199,142.7,192.9,143.5z M194.1,139.7c-1.6,1.1-2.1-0.4-0.9-1.2C194.6,137.3,195.5,138.8,194.1,139.7z
	 M194.2,136.9c-3.4,1.5-0.8-1.3-0.7-2.2C197.2,130.9,199.8,134.3,194.2,136.9z M192.2,132.7c0.3-1.6,3.2-3.8,3.1-3.8
	c-1.3,0-3.1,2.2-3.1,1.9c0.1-0.4-0.5-0.5-0.6-0.4C201.7,122.5,195.7,133.4,192.2,132.7z M184.5,161.3c1.1,0.5,0.5-0.5,0.7-0.4
	c2.7,2,1.6,5.1,1.4,5.1c-4.4-1.7-5-5.5-3.6-4.2l3.1,3.3C186.2,165,184.5,161.2,184.5,161.3z M178.5,164.8c0.4-1.7,2.1,3.4,2.5,1.5
	c-0.4-1.2-0.9-2.3-0.1-2.2c3-0.4,2,4.4,1.6,5.3C182.1,170.3,177.7,167.5,178.5,164.8z M181.1,170c4.3,4.9,3.6,5.2,2-0.8
	c0.9-2.3,1.4-0.5,1.6-0.1c1.5,2.3,0.2,5.6,0,5.5C180.6,173.1,179.7,169.6,181.1,170z M186,166.9c3.7,4,3.1,4.2,1.6-1.5
	c0.3-1,1.1-0.2,1.1-0.1c1.4,2.2,0.7,5.6,0.5,5.5C184.6,169,183.4,166.1,186,166.9z M189.6,163.4c4.3,4.9,4.1,5.5,0.5-1.8
	c-0.5-3.4,1-0.8,1.2-0.6C198.7,174.3,186.3,164.2,189.6,163.4z M192.5,159.3c5.9,5.3,5.5,5.5,0.6-1.6c-2-2.5,1-1.1,1.2-0.8
	C205.2,172.2,188.4,159.4,192.5,159.3z M194.5,153.8l4.3,2.6c0,0-5.3-5.4-4.8-5.3c6.8,2.2,6.1,6.7,5.8,6.7
	C196.5,157.8,193.7,157,194.5,153.8z M197.9,150.4c1,0.2,4.4,0.7,4.4,0.7l-4.5-2.1c-1.5-2.3,6.4,0.4,5.8,2.6
	C200.4,154.5,193.1,149.2,197.9,150.4z M194.2,145.7c-0.4-0.3,6.6-0.5,6.6-0.5c-2.1-0.8-3.3-1-6-0.7c0,0,3.9-3.7,7.9,0.8
	C202.7,145.5,198.9,149.1,194.2,145.7z M198,141.8c0.6-2,4.4-2.6,3.9-2.7c-2.5-0.5-3.4,1.1-3.6,0.8c-0.4-1.1-2.4-0.9-2.4-0.9
	c2.6-1.5,8.2-1.1,7.9-0.1C202.9,141.2,197.8,142.6,198,141.8z M197.2,137.4c1.6-1.6,5.3-2.9,4.8-2.9c-4.2-0.4-4,2.5-3.8-0.2
	c2.6-1.5,6-1.5,5.8-0.6C203.4,136.9,196.4,138,197.2,137.4z M195.6,132.3c10.3-9.2,5.8-7.8,2.6-4.3c0.1-0.8-0.4-1.1-0.9-1.2
	c1.1-2.1,6.1-2.9,6-2.6C202.2,132.3,195.6,132.3,195.6,132.3z M191.6,122.5c-0.2-0.4,1.7-2.5,1.6-2.8c-0.9-0.2-2.1,2-2.1,1.9
	c-0.4-0.4-4.1,0.5-5.2,0.8c2.6-2.8,7.7-5,9.8-5.5C194.9,119.9,191.8,123,191.6,122.5z M178.1,185.4c0,0.2-0.7,0.3-1.1-0.3
	c0.1-0.5,0.2-1.1,0.4-1.6c0.1,0.1,0.2,0.2,0.2,0.2l0.6-5.2C178.2,178.4,178.8,182,178.1,185.4z M178.3,176.8c0-0.8,0.1-1.6,0.1-2.4
	c0.2,0.1,0.7,1,1.7,3.2c-1.4-6-1.7-5.4-1.8-9c0.3,0.4,3.3,5.5,2.3,9.6C180.6,178.6,178.8,177.8,178.3,176.8z M181.2,187.3
	c-0.4,1.7-2.2-0.8-2.1-2.5c0-0.9,1.2,1.6,1.2,1.6l-0.8-7.1C181.6,179.1,182.1,184,181.2,187.3z M186.7,185c-5.2-1.3-5.2-6.9-4.9-6.6
	c5.7,7.7,5.4,7.8,1.2-0.4C180.6,170,188.1,183.7,186.7,185z M190.1,182.3c-4-1.5-7.3-8.5-4.7-6.8c5.5,7.6,5.2,7.8,1.1-0.4
	c-1-4.1,0.3-2.2,1.2-0.8C189.7,176.8,191.2,180.6,190.1,182.3z M194.1,178.7c-3.8-0.9-8.6-8.3-5.1-6.7c6.2,7.4,5.7,7.6,1.5-0.6
	C189.6,160.9,196.1,178.6,194.1,178.7z M198.6,175.1c-4.6-1.4-7.1-7-5.2-6.3c5.9,7,5.3,7.1,1.1-1.3
	C192.3,157.9,200.7,174.4,198.6,175.1z M202,171.3c-4.4-1.5-5.2-5.1-4.2-4.3c5,4.6,4.8,5,0.5-1.5c0.8-2.7,2.2,0.2,2.8,1.1
	C202.8,169.5,202.2,171.3,202,171.3z M205.8,166.1c-3.1,0.1-7.3-2.8-7.5-5.1c8.4,4.6,8.5,5.1,1.2-0.5c-4.4-3.4,0.5-1.2,1-1
	C203.5,160.6,206.8,164.4,205.8,166.1z M208.3,161.3c-4.9,1.2-12.6-6.5-1.2-1C192.3,150.9,208.7,156.4,208.3,161.3z M211.6,155.8
	c-1.8,3.5-14.6-3.1-9.8-2.3c7.6,0.9,13,4,3.1-1c-1.2-3,1-1.7,1.4-1.6C208.6,151.5,212.9,154.8,211.6,155.8z M210.5,150.4
	c-2.2,0.4-5.2,0.1-9.1-2.5c15.2,0.9,15.4,1.4,2-1.1C201.8,144.1,221.7,147.6,210.5,150.4z M215.6,142.3c1.7,2.7-12.9,3.8-12.6,1.3
	c14.1-1.3,14-0.9,0.4-1.5C208.3,140.4,212.5,140.3,215.6,142.3z M216.9,135.1c0.2,2.4-13.5,7.9-12.3,4.1c12.6-5.2,12.8-4.5,1.8-2.9
	C209.9,133.8,214.6,133.8,216.9,135.1z M213.3,131.4c-2.3,1.6-5.1,3.1-7.4,4.1c-8.6,0.6,29.5-17.6-1.7-3.3c8.7-7.4,13-6.8,14.1-6.4
	C217.9,127.6,215.9,129.6,213.3,131.4z M219.9,119c0.6,2.3-8.7,7.8-8.7,7.2c1.3-2.2,7.6-6.9,7.1-6.8c-2.6,0.4-5.2,3.2-5.1,2.7
	c0.1-0.5-0.4-0.8-0.4-0.8C215.7,117.9,219.6,117.9,219.9,119z M217,116.6c-2.8,2.4-6.1,4.5-8.2,4.5c-0.4,0,10-7.5,11.8-10.4
	c0.4-1.2-13.1,9.6-14.9,10.1c9.4-7.6,12.4-10.9,15.1-11.2C224.6,108.9,221,113,217,116.6z M226.6,93.5c-0.2-0.4,3.9-2.4,5.6-2.9
	c0.2-0.1,0.6,3.5-5.7,10.5c-6.6,6.5-21,19.6-28.7,23.8c1.7-1.2,8.1-7.1,9.5-10.3c0.2-0.4,18.1-16,22.2-21.5c0.1-0.2-2.6,1.8-3.4,2.5
	C226,95.6,226.7,94.3,226.6,93.5z M199.8,110.2c16.5-12.3,43.8-28.3,8.4,1.2c-0.2-0.3-1.7-1-2.4-0.6c4.6-3.9,12.5-9.6,15.3-13.2
	c-9.3,6-21.7,17.2-31.9,20.8C191.5,116.4,195.3,113.4,199.8,110.2z M194.2,106.8c-0.4-1.3-1.6-2.9-2.3-4.1l10.3-20
	c1.5,1.3,3.9,1.7,5.7,0.9L194.2,106.8z M189.1,94.4l-0.7,1.5c-0.5-1.1-0.7-1.8-1.1-2.7l1.9-0.1l1,2.6L191,93l2.8-0.2l-2.4-1.6
	l0.7-2.7l-2.2,1.8l-2.4-1.6l1,2.6l-1.5,1.2c-0.2-0.6-0.7-1-1.2-1.4l1-2.6l-0.4-1.1l0.7,0.5l4.8-12.4c0.4-0.1,0.8-0.2,1.2-0.3
	c0.2,0.4,0.4,0.8,0.6,1.2l-1.8,4.4l0.4,0.2l1.7-4.1c0.6,0.7,1.2,1.3,2,1.7l-4.2,9.5l0.8-0.7l3.8-8.6c0.9,0.4,2,0.6,3,0.5l-2,4.1
	l0.4,0.2l2.1-4.4h0c0.3,1.1,0.9,2.2,1.7,2.9l-10.2,19.9c-1.2-2-2.2-4-2.9-5.6l0.7-1.5L189.1,94.4z M181.3,86l0.4-2.6l-1.8,1.9
	l-2.4-1.2l1.2,2.3l-1.8,1.9l2.6-0.5l1.2,2.2c-0.4,0-0.8,0-1.1,0l0.2-0.6l-0.6-1.1l-0.8,0.1l-0.5,1.7c-1.4,0.1-3,0.3-4.6,0.5
	l5.1-19.7c0.8,0.3,1.7,0.5,2.5,0.5l-1,3.4l0.5,0.1l1-3.5c0.9,0,1.7-0.2,2.5-0.5l-4.3,13.6l0.1,0l2.3-2.4l3-9.5
	c1.2,1.7,3.1,2.8,5.2,3l-5.7,14.9c-1.2-0.4-2.5-0.4-3.8-0.4l0.4-2.5l2.6-0.5L181.3,86z M168.5,84.1l-1.5,7.3c-0.1,0-0.2,0-0.3,0
	c-0.1-1.7-0.2-2.8-0.7-3.5c-0.2-1.4-1.4-2.3-3-2.7l0.9-6.6l-1.7,0.9l-0.8,5.6c-1.4,0-2.8,0.5-4.1,1.6l0.4-4.8l-1.6,0.8l-1,12.8
	c-1.4-0.2-2.7-0.4-4.1-0.6l0.5-16.7l-0.5,0.4c0,0.4-0.2,4,0.1,4.2l-0.2-0.2l-0.3,12.3c-0.8-0.1-1.6-0.2-2.4-0.3h0.3v-6.5h-0.5v6.5
	c-0.7-0.1-1.3-0.1-2-0.2l-0.3-12l-0.5,0.3l0.3,11.6c-0.8-0.1-1.5-0.1-2.3-0.1l-0.3-5.8l-0.5,0l0.3,5.8c-0.5,0-0.9-0.1-1.4-0.1
	l-1-11.3l-1.6-0.9l1,12.1c-1.2,0-2.2,0-3.4,0.1l-1.4-10.2l0,0c0.1-0.1-0.6-4.1-0.6-4.2l-1.7-0.9l2.1,15.3c-0.6,0-1.2,0.1-1.9,0.2
	l-0.7-4l-0.5,0.1l0.7,4c-0.6,0.1-1.3,0.1-1.9,0.2l-2-10.2l-0.5-0.2l2,10.4c-0.8,0.1-1.5,0.2-2.3,0.4l-0.8-3.3l-0.5,0.1l0.8,3.3
	c-0.7,0.1-1.3,0.3-1.9,0.4L122,82.3l-0.5-0.2l3.4,13.5c-0.8,0.2-1.6,0.4-2.4,0.6l-0.8-2.8l-0.5,0.1l0.8,2.8
	c-0.5,0.2-1.1,0.3-1.6,0.5l-2.6-8.2l-0.8-0.2l-0.6,1l2.5,7.8c-1.1,0.4-2.3,0.9-3.4,1.4l-4.3-11.3l-0.5-0.1l0.4-0.2l-4.5-11.6
	c1.8-0.3,3.3-1.3,4.5-2.6l2.9,9.3l2.3,2.4l0,0l-4.3-13.4c0-0.1,0-0.1,0.1-0.2c0.8,0.3,1.7,0.5,2.6,0.6l1.2,4.1l0.5-0.1l-1.1-3.9
	c1.1,0,2.2-0.3,3.2-0.8l2.9,11.3l0.5-0.2L119,70.5c0.9-0.5,1.7-1.2,2.3-2l1.1,4.9l0.5-0.1l-1.2-5.3c0-0.1,0.1-0.1,0.1-0.1
	c1,0.5,2.1,0.8,3.2,0.8l2.3,11.5l0.5-0.2l-2.2-11.4c0.9,0,1.8-0.2,2.6-0.5l0.6,3.5l0.5-0.1l-0.6-3.6c0.9-0.4,1.7-0.9,2.4-1.6
	l1.7,12.2l1.5-0.3l-1.7-12c1.5,0.9,3.3,1.3,5,1.2l0.9,10.1l1.5-0.3L139,67.2c0.7-0.2,1.4-0.4,2.1-0.8l0.1,2.4l0.5,0l-0.2-2.6
	c0.2-0.1,0.5-0.3,0.7-0.4c0.8,0.6,1.6,1.1,2.4,1.4l0.3,9.8h0.5l-0.3-9.6c0.9,0.3,1.8,0.5,2.7,0.5v0.6h0.5v-0.6c1,0,1.9-0.2,2.8-0.5
	l-0.3,9.6h0.5l0.3-9.7c0.9-0.3,1.7-0.8,2.5-1.3c0.1,0.1,0.2,0.1,0.2,0.2l-0.2,2.6l0.5,0l0.1-2.3c0.8,0.4,1.6,0.7,2.4,0.9l-0.8,10.1
	l1.5,0.3l0.8-10.1c1.9,0.1,3.7-0.5,5.2-1.4l-1.7,12.2l1.5,0.3l1.6-12c0.7,0.6,1.5,1.1,2.3,1.4l-0.6,3.5l0.5,0.1l0.6-3.4
	c1,0.4,2.1,0.5,3.2,0.4l-2.2,11.1c0.8,0,2.5-10.6,2.7-11.2c0.9-0.1,1.7-0.4,2.5-0.8c0.1,0.2,0.3,0.4,0.4,0.6l-1.1,4.8l0.5,0.1l1-4.5
	c0.7,0.8,1.6,1.5,2.6,2l-5.2,20c-1.8,0.2-3.6,0.4-5.3,0.6l1.5-7.4L168.5,84.1z M161.4,90.4c1.3-0.1,3.1-0.2,3.7-1.6
	c0.2,0.5,0.3,1.8,0.4,2.7c-1.3,0.3-2.5,0.7-3.8,0.7l0.2-0.1L161.4,90.4z M156.8,92.9c0.6,0.9,1.1,2.4,1.1,2.9
	c-0.4-0.1-0.9-0.2-1.3-0.2L156.8,92.9z M112.1,100.8c-0.6,0.4-1.1,0.7-1.6,1.1l-3.4-7.5l-0.2,0.6l3.2,7.2c-1.4,1.1-2.5,2.1-3.4,3.2
	l-12-23.2c0.7-0.8,1.2-1.7,1.5-2.7c1.2,0.2,2.4,0.1,3.5-0.4c0.3,0.4,4,9.5,4.7,9.2l-4.2-9.4c0.8-0.4,1.5-1,2.1-1.6l1.8,4.2l0.4-0.2
	l-1.9-4.5c0.3-0.4,0.6-0.9,0.8-1.4c0.6,0.2,1.2,0.3,1.8,0.4l4.5,11.8l0.1-0.1l-0.1,0.1l4.5,11.9c-0.6,0.3-1.2,0.7-1.7,1l-1.1-2.7
	l-0.4,0.2L112.1,100.8z M205.5,73.7c10.6,1.2,0.1,15.4-4,5.2C203.7,78,205.2,76,205.5,73.7z M198,68.4c0-0.1,0-0.3,0-0.4
	c12.6-0.4,2.7,17.5-3.6,6.6C196.6,73.4,198,71,198,68.4z M188.7,64c0-0.4,0-0.7-0.1-1.1c6.2-2.7,11,6.5,5.5,10.2
	c-3,2.4-7.6,0.7-8.8-2.9C187.4,68.8,188.7,66.6,188.7,64z M179.4,60.3c0-0.7-0.1-1.4-0.3-2.1c3.8-1.5,8.3,1.7,8.1,5.7
	c0.2,6.1-8.5,8.4-11.4,3.1C177.9,65.6,179.4,63.1,179.4,60.3z M168.5,58.3c0-1.4-0.3-2.7-0.9-4c4.4-2.7,10.5,0.7,10.3,5.9
	c0.1,6.3-8.3,9.3-12.2,4.5C167.4,63.1,168.5,60.8,168.5,58.3z M158.7,50.6c2.8-0.2,5.6,1.2,7.1,3.4c2.2,3.1,1.6,7.7-1.4,10.1
	c-2.4,2.2-6.2,2.6-9,0.9c3.8-3.5,4.2-9.9,0.9-13.8C157,50.9,157.8,50.7,158.7,50.6z M140.9,53.2c6.3-10.6,22.1,0.5,14.3,10
	C148.4,71.5,135.7,62.4,140.9,53.2z M129.5,56.3c1.2-4.5,6.7-7.1,10.9-4.9c-3.3,3.9-2.8,10,0.7,13.5c0,0-0.1,0.1-0.1,0.1
	C135.4,68.7,127.4,62.8,129.5,56.3z M118.5,58.9c0.8-4.4,6.3-6.9,10.1-4.5c-1.8,3.3-0.9,7.9,1.8,10.4
	C126.2,70.3,116.8,65.7,118.5,58.9z M109,63.7c0.1-4,4.4-6.9,8.2-5.5c-0.9,3.3,0.5,7,3.2,8.8C117.5,72.5,108.6,70,109,63.7z
	 M99.7,67.7c0.4-3.6,4.5-6.3,7.9-4.8c-0.4,2.9,1,5.9,3.3,7.4C108.9,76.8,98.8,74.4,99.7,67.7z M92.3,72.5c0.2-2.9,3.2-5.2,6-4.5
	c-0.2,2.8,1.4,5.4,3.7,6.7C100,80.1,91.7,78.2,92.3,72.5z M86.2,78c0-2.4,2.2-4.6,4.7-4.3c0.3,2.4,1.8,4.4,3.9,5.3
	C93.7,84,86.1,83.2,86.2,78z M103.9,109.6L88.5,83.5c1.9,0.8,4.4,0.3,5.8-1.1l12,23.2c-0.6,0.7-1.1,1.4-1.5,2l0-0.1l-0.4,0.2
	l0.2,0.3C104.3,108.7,104,109.1,103.9,109.6z M105.2,113c-2.1-4.1,4.1-8.7,7.3-11.1c13.9-8.6,31.3-7.3,46.8-4.5c0,0-0.1-0.1-0.1-0.1
	c5.9,1.3,32.1,9.3,25.4-4.7c4.4,12.7-20.3,3.8-25.5,3.8c0.7-1.9-3-5.4-1.9-7.7c3.7-6.6,13.7,2.1,2.9,0.5l0.3,2.8
	c-1.9-0.2-3.2-3.2-1.2-4.2c-1.7,0.6-1.4,2.9-0.4,4c2,1.8,5.1,1.1,7.5,0.8v-0.1c5.8,0.3,14.8-3.6,19.5,0.3c0-0.1,0-0.2,0-0.2
	c4.3,12.4,16.3,20.2-5.7,21.8c-16.3,0.2-45.5-10.6-60.7-1.1c-2,1.6-6,5.4-3.6,7.9c-0.8-0.8-0.2-2,0.5-2.7c4,0.3,14.1-1,9,5.7
	c-1.8,2.2-4.8,4.3-5.8,7.1c-0.4,1.3,0.6,2.9,2.1,3.1c4.4-0.5,5.6-6.5,8.2-9.6c0.2,0.6,0.4,1.2,0.6,1.8c-6.5,19-18.9,12.3-12.2,2.2
	c1.8-3.3,6.6-4.2,7.3-8c-0.7,2.4-3.5,2.9-5.4,3.9c-0.5-2.8-3.8-3.7-6.2-2.9C111.9,122.3,112,114.9,105.2,113z M121.1,117.5
	c-0.6,0-2.7,0-3.5,0l-0.1-0.2c0.7-1,1.5-1.9,2.5-2.7L121.1,117.5z M121.4,130.6c0.3-0.4,0.6-0.8,1-1.2l1.4,3.1
	c-0.4,0.4-0.7,0.7-1,0.9L121.4,130.6z M122.2,133.4c-1,0-2-0.8-1.2-2.3L122.2,133.4z M122.7,128.9c0.6-0.7,1.3-1.4,2-2.1l1.1,2.8
	c-0.5,0.9-1.1,1.7-1.7,2.3L122.7,128.9z M107.1,121.6c0,0-1-0.5-1.6,0c-0.1,0.1-1.1-1.8-2.1-1.9c-0.4,0,1.7,2.3,1.5,2.9
	c0.3,0.8-3.8-2.4-3.2-4.7C102.5,117.8,104.5,118.1,107.1,121.6z M71.3,94.4c10.2,4,20.1,11.9,28.6,18.5c3.9,3.4,5.5,5.3,3.6,4.4
	c-7.3-4.1-15.3-11.4-22.6-16.2c-6.2-4.3-9.5-6.1,3.7,4.7c0.5,0.4,4,3.3,5.4,4.3c0.7,0.5-0.7,0.7-1.1,1.1
	C83.1,108.3,72.1,98,71.3,94.4z M68.9,99.6c-5-6-4.6-9-4.5-9c1.4,0.4,4.7,2,5.6,2.8c-0.2,0.8,0.6,2.3,0.6,2.3
	c-0.8-0.7-3.5-2.7-3.4-2.5c2.7,3.7,11.7,12,17.4,17.2c2.7,2.4,4.6,4.2,4.7,4.3c3,5.3,9.6,10.3,9.6,10.3
	C87.1,117.2,75.6,106.7,68.9,99.6z M74.8,109.4c4.6,0,5.5,2.9,16.3,11.2c-1.9-0.5-15.8-11.3-14.9-10.1c1.7,2.9,12,10.4,11.7,10.4
	C85,121.9,71.8,110.9,74.8,109.4z M76.8,119c0.4-1.3,4.3-1,7.3,2.3c0,0-0.6,0.3-0.5,0.8c0.1,0.4-2.4-2.4-5.1-2.7
	c-0.5-0.1,5.9,4.6,7.2,6.8C85.5,126.7,76.2,121.3,76.8,119z M78.6,126.3c-0.1-0.2-0.1-0.4-0.2-0.6c0.7-0.4,5.2-1.2,14,6.4
	c-16.8-7.5-16.3-8-1.2,1.5c0,0,2.5,3.1-0.3,1.9C86.9,133.7,80.3,130.3,78.6,126.3z M79.7,135.1c2.4-1.3,7-1.3,10.4,1.2
	c-10.8-1.6-11.1-2.4,1.9,2.9C93.2,143,79.5,137.5,79.7,135.1z M81.6,143.4c-0.3-0.2-0.6-0.5-0.8-0.8c3-2.4,7.5-2.3,12.6-0.5
	c-13.6,0.6-13.7,0.1,0.4,1.5C93.6,145.8,82.7,145.1,81.6,143.4z M82.4,148.6c2.1-3.2,11.8-3.4,10.9-1.8c-13.5,2.5-13.2,2,2,1.1
	C90.4,151.3,84.9,151.1,82.4,148.6z M85,155.8c-1.3-0.9,3.1-4.3,5.4-4.9c0.5-0.1,2.6-1.5,1.4,1.6c-9.8,5.1-4.5,1.9,3,1
	C99.7,152.7,86.8,159.2,85,155.8z M88.4,161.3c-0.3-5.2,15.8-10.1,1.3-0.9C100.9,154.8,93.5,162.5,88.4,161.3z M90.8,166.1
	c-1.1-1.4,2.4-5.7,5.2-6.6c0.6-0.2,5.4-2.4,1,1c-7.2,5.6-6.9,5.1,1.3,0.5C98,163.3,94,166.2,90.8,166.1z M94.8,171.2
	c-0.3,0.2-0.9-1.7,0.8-4.8c0.5-0.9,1.9-3.6,2.8-1c-4.2,6.3-4.6,6.2,0.6,1.5C99.5,166.3,99.4,169.6,94.8,171.2z M98.6,174.9
	c-3.6,1.2,6-17.6,3.5-7.3c-4.2,8.5-4.6,8.1,1.1,1.3C104.7,168.2,103.3,173,98.6,174.9z M103.7,178.2c-2.7,1.5-1.4-3.5,0.7-7.9
	c1.1-2.1,2-4.6,1.7,1.1c-4.1,8.2-4.6,8,1.5,0.6C110.6,170.6,108,176,103.7,178.2z M106.7,182.2c-2.7-0.1,5.5-15.3,3.4-7.1
	c-4.3,8.3-4.5,7.9,1.2,0.4c0,0,1.5-0.6,1,0C111.8,176.1,111.1,180.2,106.7,182.2z M110.6,185c-1.3,0.5-0.9-3.3,2.1-7.7
	c1.5-2.1,2-3.4,1.1,0.7c-4.2,8.2-4.6,8.1,1.1,0.4C114.9,178.4,116.1,182,110.6,185z M116.2,187.8c-0.3,0.2-0.5,0.2-0.5-0.1
	c-0.8-2.6-1-8.8,1.4-8.4l-0.7,7.1c0,0,1.2-2.5,1.2-1.6C117.7,186.4,116.7,187.5,116.2,187.8z M115.9,178.2c-0.7-2.9,1.1-6.5,2.3-8.5
	c0.2,3.1-0.4,4.3-1.7,7.9c0.8-1.3,1.3-2.2,1.7-2.8c0,0.8,0.1,1.5,0.2,2.3C117.4,177.9,116,178.5,115.9,178.2z M118.6,185.4
	c-0.4-2-0.2-4.2,0.1-5.7c0.1,1.2,0.5,2.6,0.5,3.9c0,0,0-0.1,0.1-0.2c0.1,0.5,0.2,1,0.3,1.5C119.2,185.5,118.6,185.6,118.6,185.4z
	 M119.2,189.8c-0.6-0.9-1.3-3.9,0.2-3.4c0,3-0.3,3.6,0.7,0.6c0.2,0.6,0.3,1.2,0.5,1.8C120,189.4,119.3,189.8,119.2,189.8z
	 M123.7,196.8c0.1,0.2,0.2,0.3,0.2,0.5c-3.9,1.8-8.3,5.9-8.2,5.9c4.6-3,7.5-4.3,8.8-4.8c0,0.1,0,0.1,0.1,0.1c-1.5,1-4,3.3-4.4,3.8
	c-1.1,1.8-8.5,2.1-6.1,1C117.6,201.6,117.4,199.2,123.7,196.8z M122.2,195.8c0.1-0.4,0.4-0.6,0.6-0.8c0,0,0.4,0.8,0.5,1.1
	C122.7,196.1,122.2,195.9,122.2,195.8z M126.5,201.6c0.4,0.5,0.7,1.1,1.1,1.6c-6.3,3.3-8.9,2.4-8.8,2.4c1.5-1.5,3.8-5.2,6.4-6.2
	c0.2,0.4,0.5,0.8,0.7,1.2C117.5,206.4,121.7,204.7,126.5,201.6z M128.9,204.8c0.1,0.2,0.3,0.3,0.4,0.5c-2.7,4.2-8,4.5-6.8,3.5
	c1.2-0.9,0.9-2.9,1.2-3c1.5-0.5,3.9-1.6,4.6-1.9c0,0,0,0.1,0.1,0.1C122,209.9,126.8,206.2,128.9,204.8z M116.9,210.6
	c0.6,0.2,1.8-0.2,1.8-0.2c-1.4,3.5-4.4,2-4.2,1.9C115.2,212.1,116.6,210.5,116.9,210.6z M115.1,208.6c1-0.2,2.7-2.1,2.7-2.1
	c2.1,0,4.7-0.5,4.7-0.5C122.2,211.7,114.2,209,115.1,208.6z M120.6,210.1c1.5,0.3,3-0.2,3-0.2c-0.5,0.6-3.2,2-3.1,2
	c2,0,5.9-2.7,5.7-2.2c-2.1,3.9-7.8,3-7.7,2.9C120,211.6,120.3,210,120.6,210.1z M118.1,197.7c0.3-1.2,2.9-1.2,3.6-1
	C121.6,196.6,117.2,199.5,118.1,197.7z M110.7,203.1c0.8-1.6,4.6-4,6.9-3.9c0.6,0.1-2.4,2.9-4.3,3.3
	C111.4,202.9,110.2,204.5,110.7,203.1z M110.6,209.3c-0.6,0.1-1.3,0.1-1.9,0c0-2.5,2.4-4.5,4.5-6.1c0,0-0.7,1.1-0.4,2.2
	c0,0.2-1.9,0.9-2.5,2.4c0.7-0.1,5.7-3.3,8.1-3.4C117.1,206.4,115.1,208.8,110.6,209.3z M111.3,211.3c0.3-0.9,2.4-2.2,2.7-1.9
	c0.7,0.6,1.5,0.7,1.5,0.7C114.3,211.7,112.5,212,111.3,211.3z M111.8,214.6c-0.1-0.1-0.2-0.1-0.2-0.1c0.7-0.3,1.2-1.1,1.8-1.3
	c0.7,0.6,2.3,0.6,2.2,0.6C114.1,215.4,112.4,214.9,111.8,214.6z M118.4,215.9c-0.6,0.2-1.1,0.3-1.6,0.3c-4.3,0.5,1.7-2.7,1.9-2.6
	c0.7,0.2,2.1,0,2.1,0C120.2,214.9,119.3,215.6,118.4,215.9z M123,214.4c-1.1,0.6-2.1,0.9-2.1,0.8c0.8-0.7,1.1-2.1,1.3-2.1
	c1.6,0,3.4-0.8,3.4-0.8C125.2,213.1,124,213.9,123,214.4z M128,211.1c-0.5,0.5-2,1-2.1,0.5c1.3-1,1.1-2.4,1.3-2.6
	c0.5-0.3,1.9-2,2.6-3c0.1,0.1,0.2,0.2,0.3,0.3c-1.4,3-1,2.4,0.8,0.9c0.1,0,0.1,0.1,0.1,0.1C129.8,209.4,128.8,210.5,128,211.1z
	 M130.7,209.4c0.4-0.6,0.7-1.1,0.9-1.4c0.3,0.3,0.5,0.5,0.8,0.8C131.8,209.2,130.7,209.5,130.7,209.4z M122.5,238.9
	c2.1-10.7,12-18.9,13.2-19.8c0.3,0.5,0.6,0.9,1,1.3c-4.6,5-12.3,15.9-12,15.5c3.6-3.6,10.8-12.6,13-14.9c0.2,0,0.6,0,0.8-0.2
	c0.2,0.6,0.8,1.2,1.6,1.1C133.5,233,129,237.1,122.5,238.9z M137.2,213c0.3,0.2,0.6,0.5,0.9,0.7c0,4.6-2.5-0.4-2.7-2.1
	c0.4,0.3,0.8,0.7,1.2,1C137.6,216.4,137.4,214.7,137.2,213z M140.1,218c0.8-2.6,0.6,2.2,0,2.4c-0.8-0.3-1-2.4-1-3.1
	c0,0,0.6,0.2,0.6,0.5C139.7,219.1,140.5,221.2,140.1,218z M140.1,215.9c-0.6,2.9-1.9-0.6-1.5-1.9c0.2,0.2,0.4,0.3,0.6,0.4
	c0.1,0.4,0.2,2,0.2,1.9c0.1-0.4,0.1-1.1,0.3-1.5c0.2,0.1,0.3,0.2,0.5,0.3C140.2,215.4,140.2,215.6,140.1,215.9z M138.6,218.7
	c-1.3,2.7-2.8-2.4-2.5-3.4c0,0.1,0.4,1,0.8,0.9c0.1,0.3,0.8,2.7,1,2.8C137.9,215.5,138.5,214.8,138.6,218.7z M125.9,244.7
	c-0.6-1.4,0.3-6.2,0.8-6.5c1.2-0.5,5.1-3.9,5.1-3.9s-3.3,7-3.6,7.5c4.8-8.1,11.6-17.4,12.8-19.1c0.4,0.6,0.9,0.8,1.6,0.6
	c0.2,0.4,0.5,0.9,0.9,1.2C137.5,237.3,132.8,242.3,125.9,244.7z M142,216.8c0.1-0.2,0.1-0.4,0.1-0.5c0.2,0.1,0.3,0.2,0.5,0.3
	c-0.2,4-2.1,1.4-1.6-1c0.3,0.2,0.5,0.3,0.8,0.5c0,0.5,0,2,0,2.2C141.8,218.1,141.9,217.1,142,216.8z M142,221.4
	c0.1,0,0.3-2.1,0.3-2.1c0.4-1,0.7-0.9,0.6,0.1c-0.5,4-1.9,2.1-1.9-0.5C142.4,219.2,141.3,220.4,142,221.4z M143.8,219.9
	c0.2,0.2,0.3,0.3,0.3,0.3c-0.2,2.1,0.5,2.9,0.5,2.8l0.3-2.3c1.3-1.1,0.7,1.9,0.6,2.2c-1.2,2.6-2.7-2-2.2-3.7
	C143.2,219.2,143.6,219.6,143.8,219.9z M143.4,217c0.3,0.2,0.6,0.3,0.9,0.5c0,0.2,0.6,2,0.6,2.1c0-0.6,0.1-1.1,0.2-1.7
	c0.2,0.1,0.4,0.2,0.7,0.4C145.5,222.1,143.1,219.1,143.4,217z M130.7,250.6c-1-0.5-1-6.7-0.8-6.8c2.1-1.4,6.8-6.2,6.8-6.2
	c-11,23.5,5.3-8.5,7.5-12.7c0.4,0.1,0.9-0.1,1.2-0.3c0.1,0.2,0.2,0.4,0.4,0.6C142.6,241.2,137.9,246.9,130.7,250.6z M141.9,252.2
	c-4.8,7.5-5.7,4-6.5-1.1c-0.1-1.4-0.1-2.5-0.1-2.5c4.5-4.6,7.1-9.4,7.1-9.4c-8.4,32.8,1.7-2.5,4.3-13c0.3,0.2,0.5,0.4,0.8,0.5
	C147.5,240.3,144.6,248,141.9,252.2z M146.6,221.3c2.3,1.8,1.3,0.7,2,3.8c0-0.5,0.6-2.5,0.6-2.5c0.8-0.2,1-1.1,0.9-1.5
	c1.8,6.2-4.6,6.1-3.9,0C146.4,221.2,146.5,221.2,146.6,221.3z M146.4,218.7c0.6,0.2,1,0.6,1.6,0.7c0,0.5,0.3,2,0.4,2.2
	c0,0,0.2-2.1,0.2-2.3c0.4-0.1,0.9-0.3,1.4-0.5C150.1,223.4,146.5,222.7,146.4,218.7z M148.1,259.4c-1.8-0.8-5.7-6.7-5.6-6.9
	c3.8-5,4.9-15.7,4.9-15.7c1.3,46.1,0.9,5.2,0.6-2.4c0-1,0-0.6,0,0.6C149.3,252.8,159.5,249.7,148.1,259.4z M160,255.8
	c-8-4.4-11.4-13-11.9-28.9c1,0.4,1.8,0,2.7-1c-0.7,2.5,15.5,51.1,4.3,14.4c0,0,4.1,6.9,6.9,9.3C162.3,249.6,161.3,254.5,160,255.8z
	 M151.7,218.6c0.1-0.3,0.2-0.5,0.3-0.7c0.3-0.2,0.7-0.4,1-0.5c-0.1,2.6-2.6,5.3-2.4,1.2c0.3-0.1,0.5-0.2,0.8-0.4
	c0,0.3-0.1,1.3-0.2,1.5C151.3,219.5,151.5,219.1,151.7,218.6z M153.3,219.2c0.1,2.5-0.5,6.7-2.1,3.5c-0.7-1.7-0.4-1.4,0.5-1.5
	c0.2,0,0.4,1.8,0.4,1.7C152.3,222.7,152.6,220.6,153.3,219.2z M166.2,250.8c-7.1-3.4-11.7-8.8-14.9-25.6c0.1-0.1,0.1-0.2,0.2-0.4
	c0.1,0.1,0.1,0.1,0.1,0.1c0.7,0.6,1.6-0.2,2-0.8c0.5,2,1.9,7.1,5.2,11.6c0.2,0.3,2.8,8.2,6.2,12.4c0.1,0.2-4.6-10.2-4.6-10.2
	s5.3,5.3,7.4,6.1C168.2,244.6,167.6,249.1,166.2,250.8z M155.5,216.5c-0.2,2.2-2.6,3.6-1.9,0.5c0.1-0.1,0.3-0.2,0.4-0.3
	c0.5,2.1,0.4,1.1,0.8-0.5c0.3-0.2,0.6-0.4,0.8-0.5C155.5,216.1,155.5,216.3,155.5,216.5z M155.6,217.8c0.4,2-0.8,6.8-1.8,3.3
	c-0.1-0.5-0.2-1-0.1-1.7c0-0.4,0,0.1,0.3,0.2c0.2,0.1,0.7,2.3,0.7,2.2C154.6,221.3,155.1,218.2,155.6,217.8z M172.4,245
	c-7.1-2.1-13.5-6.8-18.4-21.6c1.3,0.8,1.7-0.3,2.4-1.7c5.1,8.8,5.4,8.5,14.1,20.9c0.2,0.2-6.1-10.1-6.1-10.1c0,0,4.9,4.2,7.7,4.9
	C172.3,237.5,172.7,243.7,172.4,245z M156.6,218.2c0.2,0,0.2,2,0.2,1.8c0.3-0.4-0.1-1.9,1.1-3C157.4,224.2,154.8,217.4,156.6,218.2z
	 M156.2,216.1c0-0.2,0.1-0.5,0.1-0.8c0.1-0.1,0.2-0.1,0.3-0.2c0,2.8,0.4,1.3,0.9-0.6c0.3-0.2,0.6-0.5,0.9-0.7
	C158.7,215.4,156.3,219.5,156.2,216.1z M175.8,238c-9.8-1.2-18.6-14.5-18.7-16.4c0.5-0.1,0.9-0.6,1.2-1.1c0.2,0.1,0.6,0.2,1,0.1
	c5.3,5.8,13.6,14.2,13.5,13.9c-7.2-8.5-12.9-14.4-12.7-14.5c0.7-0.8,1.1-2.1,1.4-3.1C173.9,224.9,176,238,175.8,238z M159.5,214.7
	c0.2-0.6,0.5-1.6,0.7-2.3c0.4-0.3,0.7-0.6,1.1-0.9c0.2,1.5-1.9,6-2.6,3.3c0.1-0.5,0.1-1.4,0.7-1.8v1.8
	C159.5,214.9,159.5,214.9,159.5,214.7z M159,216.1c0.1,0.2,0.1,2.4,0.2,3.1c0.3-1.6,0.6-2.3,1.2-3.1
	C160.3,222.2,157.1,218.4,159,216.1z M163.4,206.4c-4.4,4.5-8.9,7.8-15.2,10.8c-24.4-10.6-33.5-40.8-25-64.8
	c7.9,4.8,18.7,3.9,25-3.2c6.3,7,17.2,7.9,25.1,3.1C179.3,170,177,192.2,163.4,206.4z M165.2,208c0-0.6,1.3-1.7,1.7-1.9
	c0,0,0.5,1.2,1.6,2.9C168.6,209,165.5,208.4,165.2,208z M167.7,205.2C167.6,205.1,167.6,205,167.7,205.2c0.3,0.5,1.6,2.6,2.4,2.8
	c0.3,0.1-1.2-1.9-1.3-3.2c-0.9-3.4,2.1,2.9,3.2,3.6c0.3,0.2,0,1.5,1.3,2.6C173.6,211.2,170.2,211.9,167.7,205.2z M173.8,211.9
	c0,0,1.8,0.8,3.4,0.8c0.3,0,0.3,1.2,1.2,2C178.6,214.8,174.5,213.4,173.8,211.9z M178.7,213.1c0,0,1.3,0.3,2,0
	c0.5-0.1,3.1,1.3,3.5,2.5C184.3,215.6,180.1,216.5,178.7,213.1z M187.5,213.9c-0.7,0.3-2.3,0.8-3.8-0.8c0,0,1.2,0.2,2.2-0.6
	c0.2-0.1,0.5,0.3,0.9,0.6C186.9,213.5,187.9,213.8,187.5,213.9z M187.1,211c-0.9,0.1-2.1-0.2-3.1-1.5c0,0,0.8-0.1,1.3-0.7
	c0.4-0.3,2.4,0.9,2.9,1.9C188.1,210.8,187.7,211,187.1,211z M190.6,208.8c-4.6,0.5-8.6-2.7-9.8-5c2.5,0.3,7.5,3.2,8.3,3.5
	c-0.6-1.5-3.9-3-3.8-3c2,0,0.8-1.6,0.8-1.6C188.1,204,191,206.7,190.6,208.8z M193.1,245.1c-0.2-0.7-0.4-1.1-0.5-1.5l5.2-8.4
	L193.1,245.1z M193.7,245.5c0.2-0.3,7.5-16,7.8-16.2l2.5-1.1l-8.2,16.9C195.3,245.2,194.7,245.4,193.7,245.5z M202.1,228.2l3.6-5.8
	l0.7,0.4c0.2,0.3-1.8,4-1.9,4.4L202.1,228.2z M197.6,246.6L197.6,246.6c-0.3,0.1-0.5-0.1-1.6-0.5c0.1-0.3,0.3-0.5,0.4-0.7h0
	l8.6-17.7l0.3-0.1l1.2-2.5c0.1,0.1,0.2,0.2,0.3,0.2L197.6,246.6z M199,246.9c-0.1-0.2-0.3-0.4-0.4-0.7l1.4-3.2L199,246.9z
	 M201.7,246.1c-1.1,0.5-1.7,0.8-2.1,1l1.9-7.9l4.9-11.5L201.7,246.1z M204.1,246.4c-0.9,0.4-0.8,0.4-1.6-0.3l5.1-20.1
	c0.1,0.2,0.3,0.5,0.5,0.7c-0.1,0.4-0.2,0.9-0.2,1.3C207.9,228,204.1,246.4,204.1,246.4z M210.1,230.7l-3.2,17.1l-2-1.5l3.5-17.2
	C208.8,229.4,209.3,229.7,210.1,230.7z M210.3,224.5c-0.3,1-1.5,1.4-2.4,1.2c1.1-0.2,2.3-0.9,2.4-2.2
	C210.4,223.8,210.4,224.2,210.3,224.5z M209.6,218.6l-0.1,0.4c-0.8-0.1-1.4,0-1.8,0.2c0.4-0.6,1.2-2.1,1.8-2.6l0.2,0.3
	c0,0.1-0.1,0.1-0.2,0.2C209.3,217.7,209.5,218.3,209.6,218.6z M214.3,224.2c0.3-1.7-0.9-3.1-2.6-3.3c0.1,0.4,0,0.9-0.2,1.3
	c0.1-1.3-0.6-2.3-1.6-3c0.8,0.2,1.6,0.8,1.7,1.6C213.5,220.5,215.2,222.4,214.3,224.2z M218.5,212.1c-0.2-0.2-0.4-0.3-0.6-0.4
	c2-2.3,8.9-7.5,11.4-9.4c0.1,0.3,0.2,0.9,0.5,1.1L218.5,212.1z M227.7,202.4l1.3-1.3l0.1,0.2L227.7,202.4z M242.4,192.3l-3.2-1.6
	l10.9-3.8l-6,9.5l-0.8-3.3l-11.3,8.7l1-2.2L242.4,192.3z M230.5,202.7l-1.1-3.3l-12.5,12c-0.6-0.1-1.3-0.3-1.9-0.2l13.4-12.6
	l-3.5-0.8l10.3-5.4L230.5,202.7z M218.2,206.8c0.5-0.7,5.3-8,5.9-8.3c0.2,0.3,1,0.3,1.4,0.5C223.9,200.8,220.1,205.3,218.2,206.8z
	 M229.2,192.5c0.2,0.3,0.5,0.9,0.8,1c-0.2,0.7-3.2,2-3.8,2.3L229.2,192.5z M227.8,192.7l0.8-1.1l0.1,0.1L227.8,192.7z M235.1,191.4
	c-0.4-0.1-3,1.5-3.3,1.6c0.4-0.6,5.7-5.9,6.3-6.6l0.7,1.2L235.1,191.4z M239.7,187.2l-1.6-3l-6.4,7.5l0.6-2.6l4.8-5.5l-3.4-0.8
	l0-0.2l9.3-6.1L239.7,187.2z M232.7,187.1l0.3-1.4l1.4-1.7l0.9,0.2L232.7,187.1z M235.7,180.2l7.3-11.1l1.8,0.4
	C244.3,170,236.2,180.6,235.7,180.2z M243.9,176.9c0-0.1,0.1-0.2,0.1-0.3c0,0.1,1.9,0.5,2,0.5l-3.1,3.2L243.9,176.9z M254.6,170.6
	l-4.6,10.1l-1.4-3l-7.3,7.4l0.9-2.8l5.6-5.7l-3.5-0.8L254.6,170.6z M245.3,174.2l2.2-2.7l0.8,1.3L245.3,174.2z M252.7,162.2l-3.4,10
	l-0.2,0.1l-1.5-2.5l-4.6,5.8c-0.3-0.1-3.2,2-3.6,2.1l7.1-8.8l-3.5-0.8L252.7,162.2z M245.3,165.6l2-3l0.9,1.3L245.3,165.6z
	 M242.3,160.8c0-0.1,0-0.1,0-0.1c0.2,0.1,2,0.2,2.2,0.3l-2.9,4.3L242.3,160.8z M246.2,160l-3.5-0.3l9.2-7.1l-2.6,10.5l-0.3,0.2
	l-1.7-2.5l-3.9,5.9c-0.6,0.4-1.8,0.9-1.3,1.9l-1.4,2.1l0.5-3.3L246.2,160z M241.6,152.9l-1.1,7l-2.1,1.9l-0.4-0.5
	c-0.2,1.3-2.8,3.4-3.7,4.2l2.4-4.7h-3.5L241.6,152.9z M233.2,165.6l0.1-3.8h1.8L233.2,165.6z M233.2,167.9l8.2-7.4l-1.6,10.9
	l-2.2-2.7l-4.2,7.5c0-0.4,0.4-2.6,0.2-2.9l2.9-5.1h-3.3L233.2,167.9z M237.9,170.7l-2.3,3.5l2.1-3.8L237.9,170.7z M233.2,169.1h1
	l-1,2L233.2,169.1z M233,179.8l5.5-8.3c0.3,0.3,0.6,0.9,1.2,0.9l-5.8,8.8c-0.1-0.4-0.5-0.7-0.9-0.7L233,179.8z M232.6,173.6
	l-0.8,7.5l-2.1,1.8l-0.7-0.6l-1.2,2.1l-2.9,2.4l2.9-5.4h-3.1l0-0.3L232.6,173.6z M229.5,175.3l1.2-2.5l0.7,0.6L229.5,175.3z
	 M228.3,170.1l-3.2,0.3l7.3-8.7l-0.3,11.1l-2.4-2.2c-0.8,1.6-3.1,8.5-4.9,9.3C224.1,179.3,228.1,170.7,228.3,170.1z M225.7,182.4
	h0.7l-3,5.6L225.7,182.4z M217.9,187.2c0.4,0.3,0.8,0.6,1.3,0.3l-6.2,18.4C213.7,201,216.1,191.7,217.9,187.2z M216.2,189.2l0.6-2.8
	l0.3,0.2L216.2,189.2z M223.9,190h0.9c-1.6,3.7-8,12.8-10.3,16.2l8.9-16.3C223.6,190,223.8,190,223.9,190z M224.1,183.8
	c-1.9,4.9-6.6,15.7-9.4,20.1c1.1-3.9,6.5-16.7,8.2-20.7C223.2,183.5,223.6,183.9,224.1,183.8z M221.2,184.7l0.8-2.3l0.1,0.1
	L221.2,184.7z M223.4,171.7l0.6,11.1l-2.4-2.2l-1.8,5.4l-0.5-2.8l1-2.9l-1.4,0.2l-0.4-2L223.4,171.7z M208.9,214.1
	c0.2,0,0.4,0,0.6,0.1c0-0.1-0.1-0.1-0.1-0.1c-0.1,0-0.1,0-0.2,0c0,0,0.1-0.1,0.1-0.1c-0.1-0.1-0.1-0.2-0.1-0.2v0
	c-0.1-0.1-0.1-0.2-0.2-0.2l5.6-28.8l-3.2,1.1l5.4-10.1l1.9,10.9l-2.7-1.9l-5.5,28.4c0.1-0.1,0.3-0.2,0.4-0.2
	c0.2-0.1,0.4-0.2,0.7-0.3l0.2-1l15.6-22.6h-3.5l9-7.6l-2.4,11.1l-1.9-2.7c-1.6,2.2-14.3,21.9-16.5,22.7c1.5-0.6,5.1-0.1,3.1,2
	c-0.8,0.3-2.6-0.4-3.4-0.4c-0.1,0.4-0.2,0.9-0.2,1.3c0.1,0.1,0.2,0.3,0.3,0.4c0.7-0.3,1.4-0.1,2,0.3c0,0,0,0,0.1,0
	c0.2,0.2,0.4,0.5,0.5,0.8c2-0.9,3.7,1.3,2.5,3.1c0.7-1.8-0.6-3.2-2.5-3c0.2,0.4,0.2,0.9,0.2,1.4c-0.3-1.4-1.2-2.6-2.7-2.5
	c0,0,0,0.1,0,0.1c0,0,0,0.1,0.1,0.1c0,0,0,0.1,0.1,0.1c1.7,2.8-1.7,4-2,0.7c-0.1-0.5-0.3-0.9-0.5-1.4c-0.1-0.2-0.3-0.6-0.4-0.8
	c-0.1-0.3-0.3-0.5-0.4-0.7C208.8,214.1,208.9,214.1,208.9,214.1z M201.8,215.5c-0.6-0.8-0.9-2-0.4-2.9c-0.5,2,2.5,4.1-0.3,5.3
	C201.8,217.1,202.5,216.5,201.8,215.5z M181.9,236.6l14.1-13.3c1.5,0,2.2,0.2,2.9,0.2l-1.2,1.1l0,0h-0.2l-12.7,12l0,0L181.9,236.6
	L181.9,236.6z M185.3,237.1l12.5-11.8h1.4l-13,13.4C184,238.2,184,238.5,185.3,237.1z M186.8,242.9l0.7-1.9l0.1,0.1l0,0l1.3,1.8
	C188.3,242.8,187.6,242.8,186.8,242.9z M188,240.4l13.4-14.9l-6.9,11l-5.2,5.5L188,240.4z M190.6,242.7c-0.3,0-0.6,0-1,0.1l2.9-3
	L190.6,242.7z M192.2,243c-0.2-0.2-0.4-0.2-0.7-0.3c0.1-0.2,3.5-5.6,3.7-5.8l0,0c0.6-0.8,10-16.2,10.6-16c-0.2-0.2-0.3-0.5-0.3-0.7
	l-1.5,1.7l0,0c-0.1,0.2-16.5,18.3-16.6,18.5c-0.7-0.4-1-0.5-1-0.7l0.1,0l19-19.7c-0.1-0.3-0.1-0.7-0.1-1l-5.3,5.7h-1.2l1.7-1.6
	l-0.1-0.1c1.6-1.4,2.6-2.7,5.5-5.8c0.5-0.5,1-1.1,1.6-1.7c-0.8-0.4-1.6-1.1-2-1.8c-3-1.3-2.1-5.6,0.6-6.8c-2,1.6-3.4,5-0.7,6.6
	c-1.1-2,0.7-3.9,1.6-3c1.5,1.5-1.1,3.4,0.5,4.8c0.1-0.1,1.1-1.1,1.1-1.2l0.3,0.8l-2.9,3.1c0.1,0.2,0.2,0.4,0.4,0.6l2.8-3l0.1,0.1
	l-2.7,3c0.6,0.7,2.2,0.7,2,2c0,1.2-1.2,1.2-2,0.7c0,0.2,0,0.3,0,0.5l-0.4-0.2l0.3-0.4c-0.2-0.2-0.4-0.3-0.5-0.5l-0.4,0.6l-0.1,0
	l-4.5,7.3l0,0v0l0,0C200.8,229.1,192.4,242.6,192.2,243z"/><path fill="#FFFFFF" d="M72.7,83.7L72.3,84l3.7,5l0.4-0.3L72.7,83.7z"/><path fill="#FFFFFF" d="M140.4,105.7l2.7,0.3l-0.6-1.1l0.4-3.8l0.8-1l-2.7-0.3l0.6,1.1l-0.4,3.8L140.4,105.7z"/><path fill="#FFFFFF" d="M153.2,88.1l-0.4,6.5l0.5,0l0.4-6.5L153.2,88.1z"/><path fill="#FFFFFF" d="M134.7,105.5l2.7,0.1l-0.7-1l0-1.5l0.2,0c0.4,0.5,1.3,2.1,1.5,2.6l1.7,0l0.1-0.2c-0.7-0.4-1.6-2-2-2.7
	c3.7-2.5-1.4-3.4-3.5-3.1l0.7,1l-0.1,3.8L134.7,105.5z M136.8,100.2c1.7-0.1,1.6,2.4-0.1,2.3L136.8,100.2z"/><path fill="#FFFFFF" d="M124.1,106.6l-0.3,1.1l4.5-1.3l-0.5-2l-0.3,0.1l-0.7,1.6l-1.5,0.4l-1.2-4.1l0.4-1.2l-2.5,0.7
	C123.2,102.5,123.8,105.8,124.1,106.6z"/><path fill="#FFFFFF" d="M128.9,104.3c0.2,2.3,3.7,2.3,4.5,0.5c0.4-0.8-0.2-3.1-0.2-4.1l0.6-0.8l-0.1-0.2l-2.1,0.3l1,0.8
	c0,1.3,1.2,4.3-0.7,4.6c-1.9,0.7-1.8-2.9-2-4.1l0.6-1.1l-2.7,0.4l0.9,0.9L128.9,104.3z"/><path fill="#FFFFFF" d="M216.3,93.4l-3.7,5l0.4,0.3l3.7-5L216.3,93.4z"/><path fill="#FFFFFF" d="M273,217.5l-5.9,2.3L263,215l0.4,6.4l-5.9,2.3l6.1,1.6l0.4,6.4l3.4-5.4l6.1,1.6l-4.1-4.9L273,217.5z
	 M270.5,225.9l-3.6-0.9l-2,3.1l-0.2-3.7l-3.6-0.9l3.4-1.4l-0.2-3.7l2.4,2.8l3.4-1.4l-2,3.1L270.5,225.9z"/><path fill="#FFFFFF" d="M143.4,106c0.7,0.1,2.3,0.4,2.9,0.4c2.1,0.3,3-2.2,1-3.1c1.1-0.2,1.8-1.6,0.7-2.3c0,0,0,0-0.1,0
	c-0.6-0.5-2.8-0.6-3.7-0.8l0.4,1.1C144.4,102.1,144.3,105.4,143.4,106z M146,100.9c1.8,0,1.3,2.4-0.3,2L146,100.9z M145.6,103.4
	c2,0,1.6,2.9-0.3,2.3L145.6,103.4z"/><path fill="#FFFFFF" d="M257.2,234.3l-3.4-5.4l-0.4,6.4l-6.1,1.6l5.9,2.3l-0.4,6.4l4.1-4.9l5.9,2.3l-3.4-5.4l4.1-4.9L257.2,234.3z
	 M259.9,240.6l-3.4-1.4l-2.4,2.8l0.2-3.7l-3.5-1.4l3.6-0.9l0.2-3.7l2,3.1l3.6-0.9l-2.4,2.8L259.9,240.6z"/><path fill="#FFFFFF" d="M289.6,166.7l-4.6,4.4l-5.6-3.1l2.7,5.7l-4.6,4.4l6.3-0.8l2.7,5.7l1.2-6.3l6.3-0.8l-5.6-3.1L289.6,166.7z
	 M290.4,175.3l-3.7,0.5l-0.7,3.7l-1.6-3.4l-3.7,0.5l2.7-2.5l-1.6-3.4l3.2,1.8l2.7-2.5l-0.7,3.6L290.4,175.3z"/><path fill="#FFFFFF" d="M182.7,144.3l-3.8,4.7l0.4,0.3l3.8-4.7L182.7,144.3z"/><path fill="#FFFFFF" d="M280.6,201.4l-5.6,3l-4.6-4.4l1.2,6.3l-5.6,3.1l6.3,0.8l1.2,6.3l2.7-5.7l6.3,0.8l-4.6-4.4L280.6,201.4z
	 M279.2,209.9l-3.7-0.5l-1.6,3.4l-0.7-3.7l-3.7-0.5l3.2-1.8l-0.7-3.7l2.7,2.5l3.2-1.8l-1.6,3.4L279.2,209.9z"/><path fill="#FFFFFF" d="M202.4,276.3l-0.4-6.4l-3.4,5.4l-6.1-1.6l4.1,4.9l-3.4,5.4l5.9-2.3l4.1,4.9l-0.4-6.4l5.9-2.3L202.4,276.3z
	 M201.7,283.1l-2.4-2.8l-3.4,1.4l2-3.1l-2.4-2.8l3.6,0.9l2-3.1l0.2,3.7l3.6,0.9l-3.4,1.4L201.7,283.1z"/><path fill="#FFFFFF" d="M218,268.4l-1.2-6.3l-2.7,5.7l-6.3-0.8l4.6,4.4l-2.7,5.7l5.6-3.1l4.6,4.4l-1.2-6.3l5.6-3.1L218,268.4z
	 M218.2,275.4l-2.7-2.5l-3.2,1.8l1.6-3.4l-2.7-2.5l3.7,0.5l1.6-3.4l0.7,3.7l3.7,0.5l-3.2,1.8L218.2,275.4z"/><path fill="#FFFFFF" d="M245.6,247.3l-2.7-5.7l-1.2,6.3l-6.3,0.8l5.6,3.1l-1.2,6.3l4.6-4.4l5.6,3.1l-2.7-5.8l4.6-4.4L245.6,247.3z
	 M247.5,253.9l-3.2-1.8l-2.7,2.5l0.7-3.7l-3.2-1.8l3.7-0.5l0.7-3.7l1.6,3.4l3.7-0.5l-2.7,2.5L247.5,253.9z"/><path fill="#FFFFFF" d="M232.5,258.7l-2-6l-2,6h-6.3l5.1,3.7l-2,6l5.1-3.7l5.1,3.7l-2-6l5.1-3.7H232.5z M233.5,265.6l-3-2.2l-3,2.2
	l1.1-3.5l-3-2.2h3.7l1.1-3.5l1.1,3.5h3.7l-3,2.2L233.5,265.6z"/><path fill="#FFFFFF" d="M223.6,83.4l-3.7,5l0.4,0.3l3.7-5L223.6,83.4z"/><path fill="#FFFFFF" d="M165.2,84.1l0.5,0.1l0.6-3.9l-0.4-0.5L165.2,84.1z"/><path fill="#FFFFFF" d="M166,79.2l0.5,0.2l0.3-1.5l-0.5-0.1L166,79.2z"/><path fill="#FFFFFF" d="M107.6,88.9l-0.9-2.1l-0.4,0.2l0.9,2.2L107.6,88.9z"/><path fill="#FFFFFF" d="M172.9,79.5l-0.5-0.1l-0.4,1.7l0.5,0.2L172.9,79.5z"/><path fill="#FFFFFF" d="M170.7,85.4v-2.5l2.4-0.8l-2.4-0.8v-2.5l-1.5,2l-2.4-0.8l1.5,2l-1.5,2l2.4-0.8L170.7,85.4z"/><path fill="#FFFFFF" d="M156.4,79l-0.2,2.4l0.9-1.7L156.4,79z"/><path fill="#FFFFFF" d="M154,75.2l-0.3,6.5l0.5,0l0.4-6.5L154,75.2z"/><path fill="#FFFFFF" d="M159.5,76.1l-1.1,2.1l-2.4-0.4l1.7,1.7l-1.1,2.1l2.1-1.1l1.7,1.7l-0.4-2.4l2.1-1.1l-2.4-0.4L159.5,76.1z"/><path fill="#FFFFFF" d="M149.3,104.8c-0.6,2,2.9,3.3,4.1,1.7c0.7-0.6,0.8-3.1,1-4l0.8-0.6l-0.1-0.2l-2.1-0.3l0.7,1
	c-0.3,1.3-0.1,4.4-1.9,4.2c-2.2,0-0.8-3.3-0.8-4.5l0.9-0.9l-2.7-0.4l0.6,1.1L149.3,104.8z"/><path fill="#FFFFFF" d="M97.6,81.4l-0.4,0.2l2.9,6l0.4-0.2L97.6,81.4z"/><path fill="#FFFFFF" d="M171.2,84.8v0.9l0.3,0.1l0.6-2.7l-0.5,0.2L171.2,84.8z"/><path fill="#FFFFFF" d="M162.7,108.9c3.4,1.9,4.1-1.5,4.4-4.1l0.8-0.6l0-0.2l-2.1-0.4l0.7,1c-0.2,1.6-0.6,5.4-2.8,3.8
	c-0.8-0.5,0.1-3.4,0.2-4.2l0.9-0.9l-2.7-0.5l0.5,1.1C162.4,105.3,161.2,108.1,162.7,108.9z"/><path fill="#FFFFFF" d="M103.1,93.5l-0.2,0.1l2.9,5.9l0.4-0.2l-2.8-5.8L103.1,93.5z"/><path fill="#FFFFFF" d="M174.6,105.7l0.2,0.3c-0.1,1.9-0.7,5.3,2.2,5c2.7,0.2,2.3-3.2,2.4-5l0.7-0.6l0.9,0.8l0.5,3.9l-0.6,1l2.2-0.3
	l-0.9-0.8l-0.4-2.8l2.4,3.6l0.2,0l1.3-4.7l0.5,3.3l-0.7,1.1l2.8-0.4l-0.9-0.9l-0.6-4l0.6-0.9l-2,0.3l-1.1,4.1l-2.4-3.6l-1.8,0.3
	l0-0.2l-2.1-0.1l0.8,1c-0.1,1.5,0.2,5.1-2,4.3c-1.5-0.2-0.6-3.3-0.8-4.3l0.8-1L174,105L174.6,105.7z"/><path fill="#FFFFFF" d="M156.8,105.5c3,2.3-1.5,2.9-1.3-0.2l-0.3-0.1l-0.3,2.2c1.6,1.4,5.3,0.5,3.8-2c-0.5-0.7-2.2-1.3-2-2.2
	c0.5-1.3,2.1,0,2.1,1.1l0.3,0.1l0.4-2c-0.4,0.1-1.3,0-1.7-0.1C155.3,101.8,154.8,104.8,156.8,105.5z"/><path fill="#FFFFFF" d="M168.4,108l-0.2,1l-0.9,0.8l2.2,0.3l-0.7-1l0.4-2.9l2.3,4.1l1.5,0.2l-0.4-0.7l0.6-4.3l0.9-0.8l-2.2-0.3
	l0.7,1l-0.5,3.5l-2.5-4.8l-1.6-0.2l0.8,1.3L168.4,108z"/><path fill="#FFFFFF" d="M108.2,91.3l0.6,0.5l-0.4-1L108.2,91.3z"/><path fill="#FFFFFF" d="M108.6,88.9l-2.4,1.5l-2.2-1.8l0.7,2.7l-2.4,1.6l2.8,0.2l0.8,2.7l1-2.6l2.8,0.2l-2.2-1.8L108.6,88.9z"/><path fill="#FFFFFF" d="M92.2,84.9l-0.4,0.2l3.1,5.7l0.4-0.2L92.2,84.9z"/><path fill="#FFFFFF" d="M98.5,96.3l-0.4,0.2l3.1,5.7l0.4-0.2L98.5,96.3z"/><path fill="#FFFFFF" d="M173.1,186.9c0-3.2-0.1-7.6-0.1-13.7h2.1c0.2-6.5-0.7-13-2.5-19.1c-7.8,4.1-18,3.3-24.3-3.1
	c-6.3,6.3-16.5,7.2-24.3,3.1c-1.9,6.1-2.7,12.7-2.5,19.1h2.2c-0.2,8.3-0.7,16.6,4.3,23.9v-23.9h4.7v30.6c1.3,1.6,2.7,3,4.3,4.4v-35
	h4.7V212c1.3,0.9,2.8,1.8,4.3,2.6v-41.3h4.8v41.3c1.5-0.8,2.9-1.7,4.3-2.6v-38.7h4.7v35.1c1.5-1.3,3-2.8,4.3-4.3v-30.8h4.7v24.1
	C170.6,194.1,172,190.6,173.1,186.9z"/><path fill="#FFFFFF" d="M109.8,21.4l4.1-4.9l5.9,2.3l-3.4-5.4l4.1-4.9l-6.1,1.6l-3.4-5.4l-0.4,6.4l-6.1,1.6l5.9,2.3L109.8,21.4z
	 M107.9,12.9l3.6-0.9l0.2-3.7l2,3.1l3.6-0.9l-2.3,2.9l2,3.1l-3.4-1.4l-2.4,2.8l0.2-3.7L107.9,12.9z"/><path fill="#FFFFFF" d="M116.6,45.7l-0.5,0.1l0.7,3.1l0.5-0.1L116.6,45.7z"/><path fill="#FFFFFF" d="M93.8,20.8l0.4,6.4l3.4-5.4l6.1,1.6l-4.1-4.9l3.4-5.4l-5.9,2.3l-4.1-4.9l0.4,6.4l-5.9,2.3L93.8,20.8z
	 M94.5,14l2.4,2.8l3.4-1.4l-2,3.1l2.4,2.8l-3.6-0.9l-2,3.1l-0.2-3.7L91.3,19l3.4-1.4L94.5,14z"/><path fill="#FFFFFF" d="M124.4,43.4l-0.5,0.1l0.5,3.1l0.5-0.1L124.4,43.4z"/><path fill="#FFFFFF" d="M108.8,48.7l-0.5,0.1l0.9,3l0.5-0.1L108.8,48.7z"/><path fill="#FFFFFF" d="M93.9,56.2l-0.4,0.2l1.2,2.8l0.4-0.2L93.9,56.2z"/><path fill="#FFFFFF" d="M126,17.6l4.6-4.4l5.6,3.1l-2.7-5.7l4.6-4.4L131.9,7l-2.7-5.8L128,7.5l-6.3,0.8l5.6,3.1L126,17.6z
	 M125.2,8.9l3.7-0.5l0.7-3.7l1.6,3.4l3.7-0.5l-2.7,2.5l1.6,3.4l-3.3-1.8l-2.7,2.5l0.7-3.7L125.2,8.9z"/><path fill="#FFFFFF" d="M148.4,39.4h-0.5v3.3h0.5V39.4z"/><path fill="#FFFFFF" d="M155.9,39.6l-0.2,3.2l0.5,0l0.2-3.2L155.9,39.6z"/><path fill="#FFFFFF" d="M140.1,39.8l-0.5,0l0.2,3.2l0.5,0L140.1,39.8z"/><path fill="#FFFFFF" d="M67.1,76.3l-0.4,0.3l1.8,2.5l0.4-0.3L67.1,76.3z"/><path fill="#FFFFFF" d="M39.1,62.8l3.4,5.4l0.4-6.4l6.1-1.6l-5.9-2.3l0.4-6.4l-4.1,4.9l-5.9-2.3l3.4,5.4l-4.1,4.9L39.1,62.8z
	 M36.4,56.5l3.4,1.4l2.4-2.8L42,58.7l3.4,1.4L41.8,61l-0.2,3.7l-2-3.1L36,62.5l2.4-2.8L36.4,56.5z"/><path fill="#FFFFFF" d="M50.6,49.8l2.7,5.7l1.2-6.3l6.3-0.8l-5.6-3.1l1.2-6.3l-4.6,4.4l-5.6-3.1l2.7,5.7l-4.6,4.4L50.6,49.8z
	 M48.7,43.2L52,45l2.7-2.5L54,46.1l3.2,1.8l-3.7,0.5L52.9,52l-1.6-3.4l-3.7,0.5l2.7-2.5L48.7,43.2z"/><path fill="#FFFFFF" d="M61.9,82.8l-0.4,0.3l1.9,2.3l0.4-0.3L61.9,82.8z"/><path fill="#FFFFFF" d="M15.6,95.8l5.6-3.1l4.6,4.4l-1.2-6.3l5.6-3.1l-6.3-0.8l-1.2-6.3L20,86.4l-6.3-0.8l4.6,4.4L15.6,95.8z
	 M17,87.2l3.7,0.5l1.6-3.4L23,88l3.7,0.5l-3.2,1.8l0.7,3.7l-2.7-2.5l-3.2,1.8l1.6-3.4L17,87.2z"/><path fill="#FFFFFF" d="M23.3,79.6l5.9-2.3l4.1,4.9l-0.4-6.4l5.9-2.3l-6.1-1.6l-0.4-6.4l-3.4,5.4l-6.1-1.6l4.1,4.9L23.3,79.6z
	 M25.7,71.2l3.6,0.9l2-3.1l0.2,3.7l3.6,0.9L31.6,75l0.2,3.7l-2.4-2.8L26,77.3l2-3.1L25.7,71.2z"/><path fill="#FFFFFF" d="M81.3,65l-0.4,0.2l1.6,2.8l0.4-0.2L81.3,65z"/><path fill="#FFFFFF" d="M142.6,15.8l5.1-3.7l5.1,3.7l-2-6.1l5.1-3.7h-6.3l-2-6.1l-2,6.1h-6.3l5.1,3.7L142.6,15.8z M142.9,7.2h3.7
	l1.1-3.5l1.1,3.5h3.7l-3,2.2l1.1,3.5l-3-2.2l-3,2.2l1.1-3.5L142.9,7.2z"/><path fill="#FFFFFF" d="M87.4,60.6L87,60.8l1.5,3l0.4-0.2L87.4,60.6z"/><path fill="#FFFFFF" d="M78.2,28.7l1.2,6.3l2.7-5.7l6.3,0.8l-4.6-4.4l2.7-5.7l-5.6,3.1l-4.6-4.4l1.2,6.3l-5.6,3.1L78.2,28.7z
	 M78.1,21.8l2.7,2.5l3.2-1.8l-1.6,3.4l2.7,2.5L81.4,28l-1.6,3.4l-0.7-3.7l-3.7-0.5l3.2-1.8L78.1,21.8z"/><path fill="#FFFFFF" d="M63.8,38.4l2,6.1l2-6.1H74l-5.1-3.7l2-6l-5.1,3.7l-5.1-3.7l2,6l-5.1,3.7H63.8z M62.7,31.6l3,2.2l3-2.2
	l-1.1,3.5l3,2.2h-3.7l-1.1,3.5l-1.1-3.5h-3.7l3-2.2L62.7,31.6z"/><path fill="#FFFFFF" d="M172,43.4l-0.5,3.1l0.5,0.1l0.5-3.1L172,43.4z"/><path fill="#FFFFFF" d="M263,75.1l-0.4,6.4l4.1-4.9l5.9,2.3l-3.4-5.4l4.1-4.9l-6.1,1.6l-3.4-5.4l-0.4,6.4l-6.1,1.6L263,75.1z
	 M264.3,72.1l0.2-3.7l2,3.1l3.6-0.9l-2.4,2.8l2,3.1l-3.4-1.4l-2.4,2.8l0.2-3.7l-3.5-1.4L264.3,72.1z"/><path fill="#FFFFFF" d="M221.6,37.9h6.3l2,6l2-6h6.3l-5.1-3.7l2-6.1l-5.1,3.7l-5.1-3.7l2,6.1L221.6,37.9z M229.9,33.3l3-2.2
	l-1.1,3.5l3,2.2h-3.7l-1.1,3.5l-1.1-3.5h-3.7l3-2.2l-1.1-3.5L229.9,33.3z"/><path fill="#FFFFFF" d="M246.7,59.7l6.1,1.6l0.4,6.4l3.4-5.4l6.1,1.6l-4.1-4.9l3.4-5.4l-5.9,2.3l-4.1-4.9l0.4,6.4L246.7,59.7z
	 M256,57.2l3.4-1.4l-2,3.1l2.4,2.8l-3.6-0.9l-2,3.1l-0.2-3.7l-3.6-0.9l3.4-1.4l-0.2-3.7L256,57.2z"/><path fill="#FFFFFF" d="M234.6,81.3l-1.9,2.3l0.4,0.3l1.9-2.3L234.6,81.3z"/><path fill="#FFFFFF" d="M234.9,48l6.3,0.8l1.2,6.3l2.7-5.7l6.3,0.8l-4.6-4.4l2.7-5.7l-5.6,3.1l-4.6-4.4l1.2,6.3L234.9,48z
	 M243.7,44.4l3.2-1.8l-1.6,3.4l2.7,2.5l-3.7-0.5l-1.6,3.4l-0.7-3.7l-3.7-0.5l3.2-1.8l-0.7-3.7L243.7,44.4z"/><path fill="#FFFFFF" d="M265.7,87l5.6,3.1l-1.2,6.3l4.6-4.4l5.6,3.1l-2.7-5.7l4.6-4.4l-6.3,0.8l-2.7-5.7l-1.2,6.3L265.7,87z
	 M273.7,83.6l1.6,3.4l3.7-0.5l-2.7,2.5l1.6,3.4l-3.2-1.8l-2.7,2.5l0.7-3.7l-3.2-1.8l3.7-0.5L273.7,83.6z"/><path fill="#FFFFFF" d="M286.3,160l3.4,5.4l0.4-6.4l6.1-1.6l-5.9-2.3l0.4-6.4l-4.1,4.9l-5.9-2.3l3.4,5.4l-4.1,4.9L286.3,160z
	 M283.6,153.7l3.5,1.4l2.4-2.8l-0.2,3.7l3.5,1.4l-3.6,0.9l-0.2,3.7l-2-3.1l-3.6,0.9l2.4-2.8L283.6,153.7z"/><path fill="#FFFFFF" d="M289.6,130.9l-3.4,5.4l-6.1-1.6l4.1,4.9l-3.4,5.4l5.9-2.3l4.1,4.9l-0.4-6.4l5.9-2.3l-6.1-1.6L289.6,130.9z
	 M289.1,140.4l0.2,3.7l-2.4-2.8l-3.5,1.4l2-3.1l-2.4-2.8l3.6,0.9l2-3.1l0.2,3.7l3.6,0.9L289.1,140.4z"/><path fill="#FFFFFF" d="M286.3,113.3l-2.7,5.7l-6.3-0.8l4.6,4.4l-2.7,5.7l5.6-3.1l4.6,4.4l-1.2-6.3l5.6-3.1l-6.3-0.8L286.3,113.3z
	 M287,122.8l0.7,3.6l-2.7-2.5l-3.2,1.8l1.6-3.4l-2.7-2.5l3.7,0.5l1.6-3.4l0.7,3.7l3.7,0.5L287,122.8z"/><path fill="#FFFFFF" d="M278.8,102.3h-6.3l5.1,3.7l-2,6.1l5.1-3.7l5.1,3.7l-2-6.1l5.1-3.7h-6.3l-2-6.1L278.8,102.3z M285.7,103.4
	l-3,2.2l1.1,3.5l-3-2.2l-3,2.2l1.1-3.5l-3-2.2h3.7l1.1-3.5l1.1,3.5H285.7z"/><path fill="#FFFFFF" d="M202.3,55.8l-1.2,2.8l0.4,0.2l1.2-2.8L202.3,55.8z"/><path fill="#FFFFFF" d="M175.7,18.6l5.9-2.3l4.1,4.9l-0.4-6.4l5.9-2.3l-6.1-1.6l-0.4-6.4l-3.4,5.4l-6.1-1.6l4.1,4.9L175.7,18.6z
	 M178.2,10.3l3.6,0.9l2-3.1l0.2,3.7l3.6,0.9l-3.4,1.4l0.2,3.7l-2.4-2.8l-3.4,1.4l2-3.1L178.2,10.3z"/><path fill="#FFFFFF" d="M187.7,47.9l-0.9,3l0.5,0.1l0.9-3L187.7,47.9z"/><path fill="#FFFFFF" d="M229.1,75.9l-1.8,2.5l0.4,0.3l1.8-2.5L229.1,75.9z"/><path fill="#FFFFFF" d="M159.3,16.2l5.6-3.1l4.6,4.4l-1.2-6.3l5.6-3.1l-6.3-0.8l-1.2-6.3l-2.7,5.7L157.4,6l4.6,4.4L159.3,16.2z
	 M160.6,7.6l3.7,0.5l1.6-3.4l0.7,3.7l3.7,0.5l-3.2,1.8l0.7,3.7l-2.7-2.5l-3.2,1.8l1.6-3.4L160.6,7.6z"/><path fill="#FFFFFF" d="M10,112.8l5.1-3.7l5.1,3.7l-2-6l5.1-3.7h-6.3l-2-6.1l-2,6.1H6.9l5.1,3.7L10,112.8z M10.3,104.1h3.7l1.1-3.5
	l1.1,3.5H20l-3,2.2l1.1,3.5l-3-2.2l-3,2.2l1.1-3.5L10.3,104.1z"/><path fill="#FFFFFF" d="M180.2,45.7l-0.7,3.1l0.5,0.1l0.7-3.1L180.2,45.7z"/><path fill="#FFFFFF" d="M197.9,21.5l3.4,5.4l0.4-6.4l6.1-1.6l-5.9-2.3l0.4-6.4l-4.1,4.9l-5.9-2.3l3.4,5.4l-4.1,4.9L197.9,21.5z
	 M195.2,15.2l3.5,1.4l2.4-2.8l-0.3,3.7l3.4,1.4l-3.6,0.9l-0.2,3.7l-2-3.1l-3.6,0.9l2.4-2.8L195.2,15.2z"/><path fill="#FFFFFF" d="M215.3,64.4l-1.6,2.9l0.4,0.2l1.6-2.9L215.3,64.4z"/><path fill="#FFFFFF" d="M207.2,29.6l6.3-0.8l2.7,5.7l1.2-6.3l6.3-0.8l-5.6-3.1l1.2-6.3l-4.6,4.4l-5.6-3.1l2.7,5.7L207.2,29.6z
	 M211.6,22.1l3.2,1.8l2.7-2.5l-0.7,3.7l3.2,1.8l-3.7,0.5l-0.7,3.7l-1.6-3.4l-3.7,0.5l2.7-2.5L211.6,22.1z"/><path fill="#FFFFFF" d="M209.2,59.4l-1.3,2.7l0.4,0.2l1.3-2.7L209.2,59.4z"/><path fill="#FFFFFF" d="M6.6,166.2l3.4-5.4l6.1,1.6l-4.1-4.9l3.4-5.4l-5.9,2.3l-4.1-4.9l0.4,6.4L0,158.3l6.1,1.6L6.6,166.2z
	 M7.1,156.7L6.9,153l2.4,2.8l3.4-1.4l-2,3.1l2.4,2.8l-3.6-0.9l-2,3.1l-0.2-3.7L3.7,158L7.1,156.7z"/><path fill="#FFFFFF" d="M168.4,117.1l-0.5-0.1l-0.2,0.6h0.5L168.4,117.1z"/><path fill="#FFFFFF" d="M170,118.2h-2.8l-0.9-2.7l-0.9,2.7h-2.8l2.3,1.7l-0.9,2.7l2.3-1.7l2.3,1.7l-0.9-2.7L170,118.2z"/><path fill="#FFFFFF" d="M166.2,123l0.5,0.1l0.3-1.1l-0.4-0.3L166.2,123z"/><path fill="#FFFFFF" d="M162.7,122.3l0.5,0.1l0.6-2.7l-0.4-0.3L162.7,122.3z"/><path fill="#FFFFFF" d="M176.3,124.2l2.3-1.7l2.3,1.7l-0.9-2.7l2.3-1.7h-2.8l-0.9-2.7l-0.9,2.7h-2.8l2.3,1.7L176.3,124.2z"/><path fill="#FFFFFF" d="M164.5,116.3l-0.5-0.1l-0.3,1.4h0.5L164.5,116.3z"/><path fill="#FFFFFF" d="M173.1,134.5l0.2,0.7l1.1-2.4C173.8,133.1,173.3,133.9,173.1,134.5z"/><path fill="#FFFFFF" d="M173.2,131.5l2.8-6.4c-0.8-0.1-3,5.9-3.3,6.4H173.2z"/><path fill="#FFFFFF" d="M178.6,123.2l-0.1,0.1l-1.5,3.2l0.4,0.2l1.5-3.2L178.6,123.2z"/><path fill="#FFFFFF" d="M180.9,122.7l0.2,0.6l1.7-3.3C182.1,120.4,181.3,122.1,180.9,122.7z"/><path fill="#FFFFFF" d="M175.3,120.9l-1.9,4.5l0.4,0.2l1.8-4.4L175.3,120.9z"/><path fill="#FFFFFF" d="M176,148.5l0.4,0.3l1.4-1.8l-0.4-0.3L176,148.5z"/><path fill="#FFFFFF" d="M173.8,137.6l-0.4-0.3l-2.2,4.3h0.6L173.8,137.6z"/><path fill="#FFFFFF" d="M170.6,118.3l-2.1,1.5l-0.1,0.4l0.8,2.5L170.6,118.3z"/><path fill="#FFFFFF" d="M6.7,130.4l4.6-4.4l5.6,3.1l-2.7-5.7l4.6-4.4l-6.3,0.8l-2.7-5.7l-1.2,6.3l-6.3,0.8l5.6,3.1L6.7,130.4z
	 M5.9,121.8l3.7-0.5l0.7-3.7l1.6,3.4l3.7-0.5l-2.7,2.5l1.6,3.4l-3.2-1.8l-2.7,2.5l0.7-3.6L5.9,121.8z"/><path fill="#FFFFFF" d="M179.5,142.1h-2.8l-0.9-2.7l-0.9,2.7H172l2.3,1.7l-0.9,2.7l2.3-1.7l2.3,1.7l-0.9-2.7L179.5,142.1z"/><path fill="#FFFFFF" d="M169.5,147.4l0.4,0.2l2.5-4.6l-0.4-0.3L169.5,147.4z"/><path fill="#FFFFFF" d="M169.3,136.7l0.1-0.3l-0.3,0.2L169.3,136.7z"/><path fill="#FFFFFF" d="M170.8,127.6l0.5,1.6l3.3-8.7l-1.3-1l-4.6,12h0.8L170.8,127.6z"/><path fill="#FFFFFF" d="M172.2,133.7l2.3-1.7h-2.8l-0.9-2.7l-0.9,2.7h-2.8l2.3,1.7l-0.9,2.7l2.3-1.7l2.3,1.7L172.2,133.7z"/><path fill="#FFFFFF" d="M172.2,137.4l0.4-0.8l-0.4-0.3l-0.4,0.8L172.2,137.4z"/><path fill="#FFFFFF" d="M179.1,143.1l-1.3,0.9l0.2,0.6L179.1,143.1z"/><path fill="#FFFFFF" d="M49.5,237.4l-6.1-1.6l-0.4-6.4l-3.4,5.4l-6.1-1.6l4.1,4.9l-3.4,5.4l5.9-2.3l4.1,4.9l-0.4-6.4L49.5,237.4z
	 M40.3,239.9l-3.4,1.4l2-3.1l-2.4-2.8l3.6,0.9l2-3.1l0.2,3.7l3.6,0.9l-3.4,1.4l0.2,3.7L40.3,239.9z"/><path fill="#FFFFFF" d="M33.2,222l0.4-6.4l-4.1,4.9l-5.9-2.3l3.4,5.4l-4.1,4.9l6.1-1.6l3.4,5.4l0.4-6.4l6.1-1.6L33.2,222z M31.9,225
	l-0.2,3.7l-2-3.1l-3.6,0.9l2.4-2.8l-2-3.1l3.4,1.4l2.4-2.8l-0.2,3.7l3.4,1.3L31.9,225z"/><path fill="#FFFFFF" d="M61.4,249.1l-6.3-0.8l-1.2-6.3l-2.7,5.8l-6.3-0.8l4.6,4.4l-2.7,5.7l5.6-3.1l4.6,4.4l-1.2-6.3L61.4,249.1z
	 M52.6,252.7l-3.2,1.8l1.6-3.4l-2.7-2.5l3.7,0.5l1.6-3.4l0.7,3.7l3.7,0.5l-3.2,1.8l0.7,3.7L52.6,252.7z"/><path fill="#FFFFFF" d="M74.7,259.2h-6.3l-2-6.1l-2,6.1H58l5.1,3.7l-2,6.1l5.1-3.7l5.1,3.7l-2-6.1L74.7,259.2z M66.3,263.8l-3,2.2
	l1.1-3.5l-3-2.2h3.7l1.1-3.5l1.1,3.5h3.7l-3,2.2l1.1,3.5L66.3,263.8z"/><path fill="#FFFFFF" d="M30.5,210.1L25,207l1.2-6.3l-4.6,4.4l-5.6-3.1l2.7,5.7l-4.6,4.4l6.3-0.8l2.7,5.7l1.2-6.3L30.5,210.1z
	 M22.6,213.5l-1.6-3.4l-3.7,0.5L20,208l-1.6-3.4l3.2,1.8l2.7-2.5l-0.7,3.7l3.2,1.8l-3.7,0.5L22.6,213.5z"/><path fill="#FFFFFF" d="M17.4,194.8h6.3l-5.1-3.8l2-6.1l-5.1,3.7l-5.1-3.7l2,6.1l-5.1,3.7h6.3l2,6L17.4,194.8z M10.6,193.7l3-2.2
	l-1.1-3.5l3,2.2l3-2.2l-1.1,3.5l3,2.2h-3.7l-1.1,3.5l-1.1-3.5H10.6z"/><path fill="#FFFFFF" d="M5.5,148.3l4.1-4.9l5.9,2.3l-3.4-5.4l4-4.9l-6.1,1.6l-3.4-5.4L6.1,138L0,139.6l5.9,2.3L5.5,148.3z
	 M3.6,139.8l3.6-0.9l0.2-3.7l2,3.1l3.6-0.9l-2.4,2.8l2,3.1L9.2,142l-2.4,2.8l0.2-3.7L3.6,139.8z"/><path fill="#FFFFFF" d="M179.6,143.5l-1.4,1.9l0.2,0.6l1.6-2.2L179.6,143.5z"/><path fill="#FFFFFF" d="M89.1,267.5l-6.3,0.8l-2.7-5.7l-1.2,6.3l-6.3,0.8l5.6,3.1L77,279l4.6-4.4l5.6,3.1l-2.7-5.7L89.1,267.5z
	 M84.7,275l-3.2-1.8l-2.7,2.5l0.7-3.7l-3.2-1.8l3.7-0.5l0.7-3.7l1.6,3.4l3.7-0.5l-2.7,2.5L84.7,275z"/><path fill="#FFFFFF" d="M9.9,183.8l2.7-5.7l6.3,0.8l-4.6-4.4l2.7-5.7l-5.6,3.1l-4.6-4.4l1.2,6.3l-5.5,3.1l6.3,0.8L9.9,183.8z
	 M9.3,174.3l-0.7-3.6l2.7,2.5l3.2-1.8l-1.6,3.4l2.7,2.5l-3.7-0.5l-1.6,3.4l-0.7-3.7L6,176.1L9.3,174.3z"/><path fill="#FFFFFF" d="M83,208.2c-5-0.6-6.7,5.1-9.7,7.8c3.2-2,4.8-6.7,8.8-7c-6.8,3.1-8.9,10.4-11.2,16.9
	c2.6-5.2,5.3-13.4,11.6-16.1C83.3,209.7,84.1,208.6,83,208.2z"/><path fill="#FFFFFF" d="M174.5,141.6l0.9-2.8l-1.6,2.8H174.5z"/><path fill="#FFFFFF" d="M179,130.2l-3.2,5.7l0.4,0.2l3.2-5.7L179,130.2z"/><path fill="#FFFFFF" d="M186.4,275.7l-4.1,4.9l-5.9-2.3l3.4,5.4l-4.1,4.9l6.1-1.6l3.4,5.4l0.4-6.4l6.1-1.6L186,282L186.4,275.7z
	 M188.3,284.2l-3.6,0.9l-0.2,3.7l-2-3.1l-3.6,0.9l2.4-2.8l-2-3.1l3.4,1.4l2.4-2.8l-0.2,3.7L188.3,284.2z"/><path fill="#FFFFFF" d="M98.3,275.6l-3.4-5.4l-0.4,6.4l-6.1,1.6l5.9,2.3l-0.4,6.4l4.1-4.9l5.9,2.3l-3.4-5.4l4.1-4.9L98.3,275.6z
	 M101,281.9l-3.4-1.4l-2.4,2.8l0.2-3.7l-3.4-1.4l3.6-0.9l0.2-3.7l2,3.1l3.6-0.9l-2.4,2.8L101,281.9z"/><path fill="#FFFFFF" d="M173.8,136.7l0.2,0.6l6.5-12.7l-0.4-0.3L173.8,136.7z"/><path fill="#FFFFFF" d="M170.2,279.5l-4.6,4.4l-5.6-3.1l2.7,5.7l-4.6,4.4l6.3-0.8l2.7,5.7l1.2-6.3l6.3-0.8l-5.6-3.1L170.2,279.5z
	 M171,288.2l-3.7,0.5l-0.7,3.6l-1.6-3.4l-3.7,0.5l2.7-2.5l-1.6-3.4l3.2,1.8l2.7-2.5l-0.7,3.7L171,288.2z"/><path fill="#FFFFFF" d="M137,280.9l-5.6,3.1l-4.6-4.4l1.2,6.3l-5.6,3.1l6.3,0.8l1.2,6.3l2.7-5.7l6.3,0.8l-4.6-4.4L137,280.9z
	 M135.6,289.5l-3.7-0.5l-1.6,3.4l-0.7-3.7l-3.7-0.5l3.2-1.8l-0.7-3.6l2.7,2.5l3.2-1.8l-1.6,3.4L135.6,289.5z"/><path fill="#FFFFFF" d="M120.5,278.5l-5.9,2.3l-4.1-4.9l0.4,6.4l-5.9,2.3l6.1,1.6l0.4,6.4l3.4-5.4l6.1,1.6l-4-4.9L120.5,278.5z
	 M118.1,286.8l-3.6-0.9l-2,3.1l-0.2-3.7l-3.6-0.9l3.5-1.4l-0.2-3.7l2.4,2.8l3.4-1.4l-2,3.1L118.1,286.8z"/><path fill="#FFFFFF" d="M153.6,281.3l-5.1,3.7l-5.1-3.7l2,6l-5.1,3.7h6.3l2,6l2-6h6.3l-5.1-3.7L153.6,281.3z M153.3,289.9h-3.7
	l-1.1,3.5l-1.1-3.5h-3.7l3-2.2l-1.1-3.5l3,2.2l3-2.2l-1.1,3.5L153.3,289.9z"/></svg>